G04 #@! TF.FileFunction,Copper,L2,Bot,Signal*
%FSLAX46Y46*%
G04 Gerber Fmt 4.6, Leading zero omitted, Abs format (unit mm)*
G04 Created by KiCad (PCBNEW 4.0.7) date Tue Jul  3 21:06:47 2018*
%MOMM*%
%LPD*%
G01*
G04 APERTURE LIST*
%ADD10C,0.100000*%
%ADD11R,3.600000X2.800000*%
%ADD12C,2.000000*%
%ADD13R,1.500000X1.250000*%
%ADD14R,1.500000X1.300000*%
%ADD15R,1.600000X1.600000*%
%ADD16C,1.600000*%
%ADD17C,0.600000*%
%ADD18C,0.127000*%
%ADD19C,0.250000*%
%ADD20C,0.254000*%
G04 APERTURE END LIST*
D10*
D11*
X56400000Y-39800000D03*
X56400000Y-51200000D03*
D12*
X63400000Y-43000000D03*
X63400000Y-48000000D03*
X48900000Y-43000000D03*
X48900000Y-45500000D03*
X48900000Y-48000000D03*
D13*
X56350000Y-55800000D03*
X58850000Y-55800000D03*
X56350000Y-59000000D03*
X58850000Y-59000000D03*
D14*
X51050000Y-55800000D03*
X53750000Y-55800000D03*
X51050000Y-59000000D03*
X53750000Y-59000000D03*
D15*
X43430000Y-37980000D03*
D16*
X45970000Y-37980000D03*
X48510000Y-37980000D03*
X51050000Y-37980000D03*
X53590000Y-37980000D03*
X56130000Y-37980000D03*
X58670000Y-37980000D03*
X61210000Y-37980000D03*
X63750000Y-37980000D03*
X66290000Y-37980000D03*
X68830000Y-37980000D03*
X71370000Y-37980000D03*
X71370000Y-53220000D03*
X68830000Y-53220000D03*
X66290000Y-53220000D03*
X63750000Y-53220000D03*
X61210000Y-53220000D03*
X58670000Y-53220000D03*
X56130000Y-53220000D03*
X53590000Y-53220000D03*
X51050000Y-53220000D03*
X48510000Y-53220000D03*
X45970000Y-53220000D03*
X43430000Y-53220000D03*
D17*
X56250000Y-51500000D03*
D18*
X58850000Y-59000000D02*
X60200000Y-59000000D01*
X64600000Y-51200000D02*
X56400000Y-51200000D01*
X65000000Y-51600000D02*
X64600000Y-51200000D01*
X65000000Y-54200000D02*
X65000000Y-51600000D01*
X60200000Y-59000000D02*
X65000000Y-54200000D01*
X56130000Y-37980000D02*
X56130000Y-39530000D01*
X56130000Y-39530000D02*
X56400000Y-39800000D01*
D19*
X57000000Y-51000000D02*
X58000000Y-52000000D01*
X58200000Y-49950000D02*
X57000000Y-51000000D01*
X56250000Y-50750000D02*
X56250000Y-51500000D01*
D18*
X63400000Y-43000000D02*
X66350000Y-43000000D01*
X66350000Y-43000000D02*
X71370000Y-37980000D01*
X63400000Y-48000000D02*
X66150000Y-48000000D01*
X66150000Y-48000000D02*
X71370000Y-53220000D01*
X53750000Y-55800000D02*
X53750000Y-55350000D01*
X53750000Y-55350000D02*
X52200000Y-53800000D01*
X52200000Y-46500000D02*
X48900000Y-43000000D01*
X52200000Y-53800000D02*
X52200000Y-46500000D01*
X57400000Y-57000000D02*
X57400000Y-56850000D01*
X57400000Y-56850000D02*
X56350000Y-55800000D01*
X55000000Y-57000000D02*
X54950000Y-57000000D01*
X63750000Y-54250000D02*
X61000000Y-57000000D01*
X61000000Y-57000000D02*
X57400000Y-57000000D01*
X57400000Y-57000000D02*
X55000000Y-57000000D01*
X63750000Y-53220000D02*
X63750000Y-54250000D01*
X54950000Y-57000000D02*
X53750000Y-55800000D01*
X53750000Y-59000000D02*
X53750000Y-59050000D01*
X53750000Y-59050000D02*
X52400000Y-60400000D01*
X47200000Y-49500000D02*
X48900000Y-48000000D01*
X47200000Y-59600000D02*
X47200000Y-49500000D01*
X48000000Y-60400000D02*
X47200000Y-59600000D01*
X52400000Y-60400000D02*
X48000000Y-60400000D01*
X57400000Y-60200000D02*
X57400000Y-60050000D01*
X57400000Y-60050000D02*
X56350000Y-59000000D01*
X68830000Y-53220000D02*
X68830000Y-53770000D01*
X68830000Y-53770000D02*
X62400000Y-60200000D01*
X62400000Y-60200000D02*
X57400000Y-60200000D01*
X57400000Y-60200000D02*
X54950000Y-60200000D01*
X54950000Y-60200000D02*
X53750000Y-59000000D01*
X51050000Y-59000000D02*
X51050000Y-55800000D01*
X51050000Y-55800000D02*
X51050000Y-53220000D01*
D20*
G36*
X69623011Y-29535067D02*
X69136774Y-30020456D01*
X68873300Y-30654971D01*
X68872701Y-31342014D01*
X69135067Y-31976989D01*
X69620456Y-32463226D01*
X70254971Y-32726700D01*
X70942014Y-32727299D01*
X71576989Y-32464933D01*
X72063226Y-31979544D01*
X72298000Y-31414146D01*
X72298000Y-36889774D01*
X72179386Y-36770953D01*
X71655093Y-36553248D01*
X71087397Y-36552752D01*
X70562725Y-36769543D01*
X70160953Y-37170614D01*
X70100119Y-37317118D01*
X70040457Y-37172725D01*
X69639386Y-36770953D01*
X69115093Y-36553248D01*
X68547397Y-36552752D01*
X68022725Y-36769543D01*
X67620953Y-37170614D01*
X67560119Y-37317118D01*
X67500457Y-37172725D01*
X67099386Y-36770953D01*
X66575093Y-36553248D01*
X66007397Y-36552752D01*
X65482725Y-36769543D01*
X65080953Y-37170614D01*
X65020119Y-37317118D01*
X64960457Y-37172725D01*
X64559386Y-36770953D01*
X64035093Y-36553248D01*
X63467397Y-36552752D01*
X62942725Y-36769543D01*
X62540953Y-37170614D01*
X62480119Y-37317118D01*
X62420457Y-37172725D01*
X62019386Y-36770953D01*
X61495093Y-36553248D01*
X60927397Y-36552752D01*
X60402725Y-36769543D01*
X60000953Y-37170614D01*
X59946240Y-37302379D01*
X59915169Y-37227368D01*
X59670816Y-37153133D01*
X58843948Y-37980000D01*
X59670816Y-38806867D01*
X59915169Y-38732632D01*
X59944027Y-38652916D01*
X59999543Y-38787275D01*
X60400614Y-39189047D01*
X60924907Y-39406752D01*
X61492603Y-39407248D01*
X62017275Y-39190457D01*
X62419047Y-38789386D01*
X62479881Y-38642882D01*
X62539543Y-38787275D01*
X62940614Y-39189047D01*
X63464907Y-39406752D01*
X64032603Y-39407248D01*
X64557275Y-39190457D01*
X64959047Y-38789386D01*
X65019881Y-38642882D01*
X65079543Y-38787275D01*
X65480614Y-39189047D01*
X66004907Y-39406752D01*
X66572603Y-39407248D01*
X67097275Y-39190457D01*
X67499047Y-38789386D01*
X67559881Y-38642882D01*
X67619543Y-38787275D01*
X68020614Y-39189047D01*
X68544907Y-39406752D01*
X68966366Y-39407120D01*
X66063986Y-42309500D01*
X64875108Y-42309500D01*
X64780108Y-42079582D01*
X64322825Y-41621501D01*
X63725050Y-41373283D01*
X63077789Y-41372718D01*
X62479582Y-41619892D01*
X62021501Y-42077175D01*
X61773283Y-42674950D01*
X61772718Y-43322211D01*
X62019892Y-43920418D01*
X62477175Y-44378499D01*
X63074950Y-44626717D01*
X63722211Y-44627282D01*
X64320418Y-44380108D01*
X64778499Y-43922825D01*
X64874969Y-43690500D01*
X66350000Y-43690500D01*
X66614243Y-43637939D01*
X66838257Y-43488257D01*
X70968216Y-39358298D01*
X71084907Y-39406752D01*
X71652603Y-39407248D01*
X72177275Y-39190457D01*
X72298000Y-39069943D01*
X72298000Y-52129774D01*
X72179386Y-52010953D01*
X71655093Y-51793248D01*
X71087397Y-51792752D01*
X70968425Y-51841911D01*
X66638257Y-47511743D01*
X66414243Y-47362061D01*
X66150000Y-47309500D01*
X64875108Y-47309500D01*
X64780108Y-47079582D01*
X64322825Y-46621501D01*
X63725050Y-46373283D01*
X63077789Y-46372718D01*
X62479582Y-46619892D01*
X62021501Y-47077175D01*
X61773283Y-47674950D01*
X61772718Y-48322211D01*
X62019892Y-48920418D01*
X62477175Y-49378499D01*
X63074950Y-49626717D01*
X63722211Y-49627282D01*
X64320418Y-49380108D01*
X64778499Y-48922825D01*
X64874969Y-48690500D01*
X65863986Y-48690500D01*
X68966604Y-51793118D01*
X68547397Y-51792752D01*
X68022725Y-52009543D01*
X67620953Y-52410614D01*
X67560119Y-52557118D01*
X67500457Y-52412725D01*
X67099386Y-52010953D01*
X66575093Y-51793248D01*
X66007397Y-51792752D01*
X65482725Y-52009543D01*
X65080953Y-52410614D01*
X65020119Y-52557118D01*
X64960457Y-52412725D01*
X64559386Y-52010953D01*
X64035093Y-51793248D01*
X63467397Y-51792752D01*
X62942725Y-52009543D01*
X62540953Y-52410614D01*
X62480119Y-52557118D01*
X62420457Y-52412725D01*
X62019386Y-52010953D01*
X61495093Y-51793248D01*
X60927397Y-51792752D01*
X60402725Y-52009543D01*
X60000953Y-52410614D01*
X59946240Y-52542379D01*
X59915169Y-52467368D01*
X59670816Y-52393133D01*
X58843948Y-53220000D01*
X59670816Y-54046867D01*
X59915169Y-53972632D01*
X59944027Y-53892916D01*
X59999543Y-54027275D01*
X60400614Y-54429047D01*
X60924907Y-54646752D01*
X61492603Y-54647248D01*
X62017275Y-54430457D01*
X62419047Y-54029386D01*
X62479881Y-53882882D01*
X62539543Y-54027275D01*
X62767678Y-54255808D01*
X60713986Y-56309500D01*
X60227000Y-56309500D01*
X60227000Y-56079750D01*
X60070250Y-55923000D01*
X58973000Y-55923000D01*
X58973000Y-55943000D01*
X58727000Y-55943000D01*
X58727000Y-55923000D01*
X58707000Y-55923000D01*
X58707000Y-55677000D01*
X58727000Y-55677000D01*
X58727000Y-55657000D01*
X58973000Y-55657000D01*
X58973000Y-55677000D01*
X60070250Y-55677000D01*
X60227000Y-55520250D01*
X60227000Y-55050282D01*
X60131545Y-54819833D01*
X59955167Y-54643455D01*
X59724718Y-54548000D01*
X59222661Y-54548000D01*
X59422632Y-54465169D01*
X59496867Y-54220816D01*
X58670000Y-53393948D01*
X57843133Y-54220816D01*
X57917368Y-54465169D01*
X58146180Y-54548000D01*
X57975282Y-54548000D01*
X57744833Y-54643455D01*
X57597709Y-54790579D01*
X57558243Y-54729247D01*
X57348717Y-54586083D01*
X57100000Y-54535717D01*
X56712314Y-54535717D01*
X56882632Y-54465169D01*
X56956867Y-54220816D01*
X56130000Y-53393948D01*
X55303133Y-54220816D01*
X55377368Y-54465169D01*
X55581740Y-54539153D01*
X55367648Y-54579437D01*
X55154247Y-54716757D01*
X55057451Y-54858421D01*
X54958243Y-54704247D01*
X54748717Y-54561083D01*
X54500000Y-54510717D01*
X54203032Y-54510717D01*
X54397275Y-54430457D01*
X54799047Y-54029386D01*
X54853760Y-53897621D01*
X54884831Y-53972632D01*
X55129184Y-54046867D01*
X55949052Y-53227000D01*
X56120250Y-53227000D01*
X56229742Y-53117509D01*
X56276998Y-53164765D01*
X56276998Y-53227000D01*
X56310948Y-53227000D01*
X57130816Y-54046867D01*
X57375169Y-53972632D01*
X57398330Y-53908653D01*
X57424831Y-53972632D01*
X57669184Y-54046867D01*
X58496052Y-53220000D01*
X58481910Y-53205858D01*
X58655858Y-53031910D01*
X58670000Y-53046052D01*
X59496867Y-52219184D01*
X59422632Y-51974831D01*
X58888836Y-51781594D01*
X58827000Y-51784401D01*
X58827000Y-51479750D01*
X58670250Y-51323000D01*
X56523000Y-51323000D01*
X56523000Y-51343000D01*
X56277000Y-51343000D01*
X56277000Y-51323000D01*
X54129750Y-51323000D01*
X53973000Y-51479750D01*
X53973000Y-51833902D01*
X53875093Y-51793248D01*
X53307397Y-51792752D01*
X52890500Y-51965011D01*
X52890500Y-49675282D01*
X53973000Y-49675282D01*
X53973000Y-50920250D01*
X54129750Y-51077000D01*
X56277000Y-51077000D01*
X56277000Y-49329750D01*
X56523000Y-49329750D01*
X56523000Y-51077000D01*
X58670250Y-51077000D01*
X58827000Y-50920250D01*
X58827000Y-49675282D01*
X58731545Y-49444833D01*
X58555167Y-49268455D01*
X58324718Y-49173000D01*
X56679750Y-49173000D01*
X56523000Y-49329750D01*
X56277000Y-49329750D01*
X56120250Y-49173000D01*
X54475282Y-49173000D01*
X54244833Y-49268455D01*
X54068455Y-49444833D01*
X53973000Y-49675282D01*
X52890500Y-49675282D01*
X52890500Y-46500000D01*
X52866158Y-46377624D01*
X52845431Y-46254626D01*
X52839953Y-46245881D01*
X52837939Y-46235757D01*
X52768623Y-46132019D01*
X52702400Y-46026308D01*
X50413217Y-43598387D01*
X50526717Y-43325050D01*
X50527282Y-42677789D01*
X50280108Y-42079582D01*
X49822825Y-41621501D01*
X49225050Y-41373283D01*
X48577789Y-41372718D01*
X47979582Y-41619892D01*
X47521501Y-42077175D01*
X47273283Y-42674950D01*
X47272718Y-43322211D01*
X47519892Y-43920418D01*
X47935109Y-44336360D01*
X47928378Y-44354430D01*
X48900000Y-45326052D01*
X48914143Y-45311910D01*
X49088091Y-45485858D01*
X49073948Y-45500000D01*
X50045570Y-46471622D01*
X50310662Y-46372869D01*
X50537314Y-45766589D01*
X50536461Y-45742181D01*
X51509500Y-46774193D01*
X51509500Y-51865668D01*
X51335093Y-51793248D01*
X50767397Y-51792752D01*
X50242725Y-52009543D01*
X49840953Y-52410614D01*
X49780119Y-52557118D01*
X49720457Y-52412725D01*
X49319386Y-52010953D01*
X48795093Y-51793248D01*
X48227397Y-51792752D01*
X47890500Y-51931956D01*
X47890500Y-49811601D01*
X48252011Y-49492621D01*
X48574950Y-49626717D01*
X49222211Y-49627282D01*
X49820418Y-49380108D01*
X50278499Y-48922825D01*
X50526717Y-48325050D01*
X50527282Y-47677789D01*
X50280108Y-47079582D01*
X49864891Y-46663640D01*
X49871622Y-46645570D01*
X48900000Y-45673948D01*
X47928378Y-46645570D01*
X47935285Y-46664112D01*
X47521501Y-47077175D01*
X47273283Y-47674950D01*
X47272718Y-48322211D01*
X47331085Y-48463471D01*
X46743150Y-48982237D01*
X46729904Y-48999608D01*
X46711743Y-49011743D01*
X46648653Y-49106164D01*
X46579786Y-49196478D01*
X46574196Y-49217595D01*
X46562061Y-49235757D01*
X46539905Y-49347143D01*
X46510845Y-49456928D01*
X46513762Y-49478575D01*
X46509500Y-49500000D01*
X46509500Y-51897676D01*
X46188836Y-51781594D01*
X45621724Y-51807341D01*
X45217368Y-51974831D01*
X45143133Y-52219184D01*
X45970000Y-53046052D01*
X45984142Y-53031909D01*
X46158091Y-53205858D01*
X46143948Y-53220000D01*
X46158091Y-53234143D01*
X45984142Y-53408091D01*
X45970000Y-53393948D01*
X45143133Y-54220816D01*
X45217368Y-54465169D01*
X45751164Y-54658406D01*
X46318276Y-54632659D01*
X46509500Y-54553451D01*
X46509500Y-59600000D01*
X46562061Y-59864243D01*
X46711743Y-60088257D01*
X47511743Y-60888257D01*
X47735757Y-61037939D01*
X48000000Y-61090500D01*
X52400000Y-61090500D01*
X52664243Y-61037939D01*
X52888257Y-60888257D01*
X53487231Y-60289283D01*
X54062769Y-60289283D01*
X54461743Y-60688257D01*
X54685757Y-60837939D01*
X54950000Y-60890500D01*
X62400000Y-60890500D01*
X62664243Y-60837939D01*
X62888257Y-60688257D01*
X68929426Y-54647088D01*
X69112603Y-54647248D01*
X69637275Y-54430457D01*
X70039047Y-54029386D01*
X70099881Y-53882882D01*
X70159543Y-54027275D01*
X70560614Y-54429047D01*
X71084907Y-54646752D01*
X71652603Y-54647248D01*
X72177275Y-54430457D01*
X72298000Y-54309943D01*
X72298000Y-59787077D01*
X72064933Y-59223011D01*
X71579544Y-58736774D01*
X70945029Y-58473300D01*
X70257986Y-58472701D01*
X69623011Y-58735067D01*
X69136774Y-59220456D01*
X68873300Y-59854971D01*
X68872701Y-60542014D01*
X69135067Y-61176989D01*
X69620456Y-61663226D01*
X70185854Y-61898000D01*
X41812923Y-61898000D01*
X42376989Y-61664933D01*
X42863226Y-61179544D01*
X43126700Y-60545029D01*
X43127299Y-59857986D01*
X42864933Y-59223011D01*
X42379544Y-58736774D01*
X41745029Y-58473300D01*
X41057986Y-58472701D01*
X40423011Y-58735067D01*
X39936774Y-59220456D01*
X39702000Y-59785854D01*
X39702000Y-53502603D01*
X42002752Y-53502603D01*
X42219543Y-54027275D01*
X42620614Y-54429047D01*
X43144907Y-54646752D01*
X43712603Y-54647248D01*
X44237275Y-54430457D01*
X44639047Y-54029386D01*
X44693760Y-53897621D01*
X44724831Y-53972632D01*
X44969184Y-54046867D01*
X45796052Y-53220000D01*
X44969184Y-52393133D01*
X44724831Y-52467368D01*
X44695973Y-52547084D01*
X44640457Y-52412725D01*
X44239386Y-52010953D01*
X43715093Y-51793248D01*
X43147397Y-51792752D01*
X42622725Y-52009543D01*
X42220953Y-52410614D01*
X42003248Y-52934907D01*
X42002752Y-53502603D01*
X39702000Y-53502603D01*
X39702000Y-45233411D01*
X47262686Y-45233411D01*
X47285300Y-45880277D01*
X47489338Y-46372869D01*
X47754430Y-46471622D01*
X48726052Y-45500000D01*
X47754430Y-44528378D01*
X47489338Y-44627131D01*
X47262686Y-45233411D01*
X39702000Y-45233411D01*
X39702000Y-40079750D01*
X53973000Y-40079750D01*
X53973000Y-41324718D01*
X54068455Y-41555167D01*
X54244833Y-41731545D01*
X54475282Y-41827000D01*
X56120250Y-41827000D01*
X56277000Y-41670250D01*
X56277000Y-39923000D01*
X56523000Y-39923000D01*
X56523000Y-41670250D01*
X56679750Y-41827000D01*
X58324718Y-41827000D01*
X58555167Y-41731545D01*
X58731545Y-41555167D01*
X58827000Y-41324718D01*
X58827000Y-40079750D01*
X58670250Y-39923000D01*
X56523000Y-39923000D01*
X56277000Y-39923000D01*
X54129750Y-39923000D01*
X53973000Y-40079750D01*
X39702000Y-40079750D01*
X39702000Y-37180000D01*
X41990717Y-37180000D01*
X41990717Y-38780000D01*
X42034437Y-39012352D01*
X42171757Y-39225753D01*
X42381283Y-39368917D01*
X42630000Y-39419283D01*
X44230000Y-39419283D01*
X44462352Y-39375563D01*
X44675753Y-39238243D01*
X44818917Y-39028717D01*
X44849551Y-38877440D01*
X45160614Y-39189047D01*
X45684907Y-39406752D01*
X46252603Y-39407248D01*
X46777275Y-39190457D01*
X46987282Y-38980816D01*
X47683133Y-38980816D01*
X47757368Y-39225169D01*
X48291164Y-39418406D01*
X48858276Y-39392659D01*
X49262632Y-39225169D01*
X49336867Y-38980816D01*
X50223133Y-38980816D01*
X50297368Y-39225169D01*
X50831164Y-39418406D01*
X51398276Y-39392659D01*
X51802632Y-39225169D01*
X51876867Y-38980816D01*
X51050000Y-38153948D01*
X50223133Y-38980816D01*
X49336867Y-38980816D01*
X48510000Y-38153948D01*
X47683133Y-38980816D01*
X46987282Y-38980816D01*
X47179047Y-38789386D01*
X47233760Y-38657621D01*
X47264831Y-38732632D01*
X47509184Y-38806867D01*
X48336052Y-37980000D01*
X48683948Y-37980000D01*
X49510816Y-38806867D01*
X49755169Y-38732632D01*
X49778330Y-38668653D01*
X49804831Y-38732632D01*
X50049184Y-38806867D01*
X50876052Y-37980000D01*
X51223948Y-37980000D01*
X52050816Y-38806867D01*
X52295169Y-38732632D01*
X52324027Y-38652916D01*
X52379543Y-38787275D01*
X52780614Y-39189047D01*
X53304907Y-39406752D01*
X53872603Y-39407248D01*
X53973000Y-39365765D01*
X53973000Y-39520250D01*
X54129750Y-39677000D01*
X56277000Y-39677000D01*
X56277000Y-39401797D01*
X56478276Y-39392659D01*
X56523000Y-39374134D01*
X56523000Y-39677000D01*
X58670250Y-39677000D01*
X58827000Y-39520250D01*
X58827000Y-39401343D01*
X59018276Y-39392659D01*
X59422632Y-39225169D01*
X59496867Y-38980816D01*
X58827000Y-38310948D01*
X58827000Y-38275282D01*
X58731545Y-38044833D01*
X58555167Y-37868455D01*
X58324718Y-37773000D01*
X58289052Y-37773000D01*
X57669184Y-37153133D01*
X57424831Y-37227368D01*
X57401670Y-37291347D01*
X57375169Y-37227368D01*
X57130816Y-37153133D01*
X56303948Y-37980000D01*
X56318091Y-37994143D01*
X56277000Y-38035233D01*
X56277000Y-37929750D01*
X56141651Y-37794401D01*
X56956867Y-36979184D01*
X57843133Y-36979184D01*
X58670000Y-37806052D01*
X59496867Y-36979184D01*
X59422632Y-36734831D01*
X58888836Y-36541594D01*
X58321724Y-36567341D01*
X57917368Y-36734831D01*
X57843133Y-36979184D01*
X56956867Y-36979184D01*
X56882632Y-36734831D01*
X56348836Y-36541594D01*
X55781724Y-36567341D01*
X55377368Y-36734831D01*
X55303133Y-36979184D01*
X56096948Y-37773000D01*
X55749052Y-37773000D01*
X55129184Y-37153133D01*
X54884831Y-37227368D01*
X54855973Y-37307084D01*
X54800457Y-37172725D01*
X54399386Y-36770953D01*
X53875093Y-36553248D01*
X53307397Y-36552752D01*
X52782725Y-36769543D01*
X52380953Y-37170614D01*
X52326240Y-37302379D01*
X52295169Y-37227368D01*
X52050816Y-37153133D01*
X51223948Y-37980000D01*
X50876052Y-37980000D01*
X50049184Y-37153133D01*
X49804831Y-37227368D01*
X49781670Y-37291347D01*
X49755169Y-37227368D01*
X49510816Y-37153133D01*
X48683948Y-37980000D01*
X48336052Y-37980000D01*
X47509184Y-37153133D01*
X47264831Y-37227368D01*
X47235973Y-37307084D01*
X47180457Y-37172725D01*
X46987254Y-36979184D01*
X47683133Y-36979184D01*
X48510000Y-37806052D01*
X49336867Y-36979184D01*
X50223133Y-36979184D01*
X51050000Y-37806052D01*
X51876867Y-36979184D01*
X51802632Y-36734831D01*
X51268836Y-36541594D01*
X50701724Y-36567341D01*
X50297368Y-36734831D01*
X50223133Y-36979184D01*
X49336867Y-36979184D01*
X49262632Y-36734831D01*
X48728836Y-36541594D01*
X48161724Y-36567341D01*
X47757368Y-36734831D01*
X47683133Y-36979184D01*
X46987254Y-36979184D01*
X46779386Y-36770953D01*
X46255093Y-36553248D01*
X45687397Y-36552752D01*
X45162725Y-36769543D01*
X44850666Y-37081058D01*
X44825563Y-36947648D01*
X44688243Y-36734247D01*
X44478717Y-36591083D01*
X44230000Y-36540717D01*
X42630000Y-36540717D01*
X42397648Y-36584437D01*
X42184247Y-36721757D01*
X42041083Y-36931283D01*
X41990717Y-37180000D01*
X39702000Y-37180000D01*
X39702000Y-31412923D01*
X39935067Y-31976989D01*
X40420456Y-32463226D01*
X41054971Y-32726700D01*
X41742014Y-32727299D01*
X42376989Y-32464933D01*
X42863226Y-31979544D01*
X43126700Y-31345029D01*
X43127299Y-30657986D01*
X42864933Y-30023011D01*
X42379544Y-29536774D01*
X41814146Y-29302000D01*
X70187077Y-29302000D01*
X69623011Y-29535067D01*
X69623011Y-29535067D01*
G37*
X69623011Y-29535067D02*
X69136774Y-30020456D01*
X68873300Y-30654971D01*
X68872701Y-31342014D01*
X69135067Y-31976989D01*
X69620456Y-32463226D01*
X70254971Y-32726700D01*
X70942014Y-32727299D01*
X71576989Y-32464933D01*
X72063226Y-31979544D01*
X72298000Y-31414146D01*
X72298000Y-36889774D01*
X72179386Y-36770953D01*
X71655093Y-36553248D01*
X71087397Y-36552752D01*
X70562725Y-36769543D01*
X70160953Y-37170614D01*
X70100119Y-37317118D01*
X70040457Y-37172725D01*
X69639386Y-36770953D01*
X69115093Y-36553248D01*
X68547397Y-36552752D01*
X68022725Y-36769543D01*
X67620953Y-37170614D01*
X67560119Y-37317118D01*
X67500457Y-37172725D01*
X67099386Y-36770953D01*
X66575093Y-36553248D01*
X66007397Y-36552752D01*
X65482725Y-36769543D01*
X65080953Y-37170614D01*
X65020119Y-37317118D01*
X64960457Y-37172725D01*
X64559386Y-36770953D01*
X64035093Y-36553248D01*
X63467397Y-36552752D01*
X62942725Y-36769543D01*
X62540953Y-37170614D01*
X62480119Y-37317118D01*
X62420457Y-37172725D01*
X62019386Y-36770953D01*
X61495093Y-36553248D01*
X60927397Y-36552752D01*
X60402725Y-36769543D01*
X60000953Y-37170614D01*
X59946240Y-37302379D01*
X59915169Y-37227368D01*
X59670816Y-37153133D01*
X58843948Y-37980000D01*
X59670816Y-38806867D01*
X59915169Y-38732632D01*
X59944027Y-38652916D01*
X59999543Y-38787275D01*
X60400614Y-39189047D01*
X60924907Y-39406752D01*
X61492603Y-39407248D01*
X62017275Y-39190457D01*
X62419047Y-38789386D01*
X62479881Y-38642882D01*
X62539543Y-38787275D01*
X62940614Y-39189047D01*
X63464907Y-39406752D01*
X64032603Y-39407248D01*
X64557275Y-39190457D01*
X64959047Y-38789386D01*
X65019881Y-38642882D01*
X65079543Y-38787275D01*
X65480614Y-39189047D01*
X66004907Y-39406752D01*
X66572603Y-39407248D01*
X67097275Y-39190457D01*
X67499047Y-38789386D01*
X67559881Y-38642882D01*
X67619543Y-38787275D01*
X68020614Y-39189047D01*
X68544907Y-39406752D01*
X68966366Y-39407120D01*
X66063986Y-42309500D01*
X64875108Y-42309500D01*
X64780108Y-42079582D01*
X64322825Y-41621501D01*
X63725050Y-41373283D01*
X63077789Y-41372718D01*
X62479582Y-41619892D01*
X62021501Y-42077175D01*
X61773283Y-42674950D01*
X61772718Y-43322211D01*
X62019892Y-43920418D01*
X62477175Y-44378499D01*
X63074950Y-44626717D01*
X63722211Y-44627282D01*
X64320418Y-44380108D01*
X64778499Y-43922825D01*
X64874969Y-43690500D01*
X66350000Y-43690500D01*
X66614243Y-43637939D01*
X66838257Y-43488257D01*
X70968216Y-39358298D01*
X71084907Y-39406752D01*
X71652603Y-39407248D01*
X72177275Y-39190457D01*
X72298000Y-39069943D01*
X72298000Y-52129774D01*
X72179386Y-52010953D01*
X71655093Y-51793248D01*
X71087397Y-51792752D01*
X70968425Y-51841911D01*
X66638257Y-47511743D01*
X66414243Y-47362061D01*
X66150000Y-47309500D01*
X64875108Y-47309500D01*
X64780108Y-47079582D01*
X64322825Y-46621501D01*
X63725050Y-46373283D01*
X63077789Y-46372718D01*
X62479582Y-46619892D01*
X62021501Y-47077175D01*
X61773283Y-47674950D01*
X61772718Y-48322211D01*
X62019892Y-48920418D01*
X62477175Y-49378499D01*
X63074950Y-49626717D01*
X63722211Y-49627282D01*
X64320418Y-49380108D01*
X64778499Y-48922825D01*
X64874969Y-48690500D01*
X65863986Y-48690500D01*
X68966604Y-51793118D01*
X68547397Y-51792752D01*
X68022725Y-52009543D01*
X67620953Y-52410614D01*
X67560119Y-52557118D01*
X67500457Y-52412725D01*
X67099386Y-52010953D01*
X66575093Y-51793248D01*
X66007397Y-51792752D01*
X65482725Y-52009543D01*
X65080953Y-52410614D01*
X65020119Y-52557118D01*
X64960457Y-52412725D01*
X64559386Y-52010953D01*
X64035093Y-51793248D01*
X63467397Y-51792752D01*
X62942725Y-52009543D01*
X62540953Y-52410614D01*
X62480119Y-52557118D01*
X62420457Y-52412725D01*
X62019386Y-52010953D01*
X61495093Y-51793248D01*
X60927397Y-51792752D01*
X60402725Y-52009543D01*
X60000953Y-52410614D01*
X59946240Y-52542379D01*
X59915169Y-52467368D01*
X59670816Y-52393133D01*
X58843948Y-53220000D01*
X59670816Y-54046867D01*
X59915169Y-53972632D01*
X59944027Y-53892916D01*
X59999543Y-54027275D01*
X60400614Y-54429047D01*
X60924907Y-54646752D01*
X61492603Y-54647248D01*
X62017275Y-54430457D01*
X62419047Y-54029386D01*
X62479881Y-53882882D01*
X62539543Y-54027275D01*
X62767678Y-54255808D01*
X60713986Y-56309500D01*
X60227000Y-56309500D01*
X60227000Y-56079750D01*
X60070250Y-55923000D01*
X58973000Y-55923000D01*
X58973000Y-55943000D01*
X58727000Y-55943000D01*
X58727000Y-55923000D01*
X58707000Y-55923000D01*
X58707000Y-55677000D01*
X58727000Y-55677000D01*
X58727000Y-55657000D01*
X58973000Y-55657000D01*
X58973000Y-55677000D01*
X60070250Y-55677000D01*
X60227000Y-55520250D01*
X60227000Y-55050282D01*
X60131545Y-54819833D01*
X59955167Y-54643455D01*
X59724718Y-54548000D01*
X59222661Y-54548000D01*
X59422632Y-54465169D01*
X59496867Y-54220816D01*
X58670000Y-53393948D01*
X57843133Y-54220816D01*
X57917368Y-54465169D01*
X58146180Y-54548000D01*
X57975282Y-54548000D01*
X57744833Y-54643455D01*
X57597709Y-54790579D01*
X57558243Y-54729247D01*
X57348717Y-54586083D01*
X57100000Y-54535717D01*
X56712314Y-54535717D01*
X56882632Y-54465169D01*
X56956867Y-54220816D01*
X56130000Y-53393948D01*
X55303133Y-54220816D01*
X55377368Y-54465169D01*
X55581740Y-54539153D01*
X55367648Y-54579437D01*
X55154247Y-54716757D01*
X55057451Y-54858421D01*
X54958243Y-54704247D01*
X54748717Y-54561083D01*
X54500000Y-54510717D01*
X54203032Y-54510717D01*
X54397275Y-54430457D01*
X54799047Y-54029386D01*
X54853760Y-53897621D01*
X54884831Y-53972632D01*
X55129184Y-54046867D01*
X55949052Y-53227000D01*
X56120250Y-53227000D01*
X56229742Y-53117509D01*
X56276998Y-53164765D01*
X56276998Y-53227000D01*
X56310948Y-53227000D01*
X57130816Y-54046867D01*
X57375169Y-53972632D01*
X57398330Y-53908653D01*
X57424831Y-53972632D01*
X57669184Y-54046867D01*
X58496052Y-53220000D01*
X58481910Y-53205858D01*
X58655858Y-53031910D01*
X58670000Y-53046052D01*
X59496867Y-52219184D01*
X59422632Y-51974831D01*
X58888836Y-51781594D01*
X58827000Y-51784401D01*
X58827000Y-51479750D01*
X58670250Y-51323000D01*
X56523000Y-51323000D01*
X56523000Y-51343000D01*
X56277000Y-51343000D01*
X56277000Y-51323000D01*
X54129750Y-51323000D01*
X53973000Y-51479750D01*
X53973000Y-51833902D01*
X53875093Y-51793248D01*
X53307397Y-51792752D01*
X52890500Y-51965011D01*
X52890500Y-49675282D01*
X53973000Y-49675282D01*
X53973000Y-50920250D01*
X54129750Y-51077000D01*
X56277000Y-51077000D01*
X56277000Y-49329750D01*
X56523000Y-49329750D01*
X56523000Y-51077000D01*
X58670250Y-51077000D01*
X58827000Y-50920250D01*
X58827000Y-49675282D01*
X58731545Y-49444833D01*
X58555167Y-49268455D01*
X58324718Y-49173000D01*
X56679750Y-49173000D01*
X56523000Y-49329750D01*
X56277000Y-49329750D01*
X56120250Y-49173000D01*
X54475282Y-49173000D01*
X54244833Y-49268455D01*
X54068455Y-49444833D01*
X53973000Y-49675282D01*
X52890500Y-49675282D01*
X52890500Y-46500000D01*
X52866158Y-46377624D01*
X52845431Y-46254626D01*
X52839953Y-46245881D01*
X52837939Y-46235757D01*
X52768623Y-46132019D01*
X52702400Y-46026308D01*
X50413217Y-43598387D01*
X50526717Y-43325050D01*
X50527282Y-42677789D01*
X50280108Y-42079582D01*
X49822825Y-41621501D01*
X49225050Y-41373283D01*
X48577789Y-41372718D01*
X47979582Y-41619892D01*
X47521501Y-42077175D01*
X47273283Y-42674950D01*
X47272718Y-43322211D01*
X47519892Y-43920418D01*
X47935109Y-44336360D01*
X47928378Y-44354430D01*
X48900000Y-45326052D01*
X48914143Y-45311910D01*
X49088091Y-45485858D01*
X49073948Y-45500000D01*
X50045570Y-46471622D01*
X50310662Y-46372869D01*
X50537314Y-45766589D01*
X50536461Y-45742181D01*
X51509500Y-46774193D01*
X51509500Y-51865668D01*
X51335093Y-51793248D01*
X50767397Y-51792752D01*
X50242725Y-52009543D01*
X49840953Y-52410614D01*
X49780119Y-52557118D01*
X49720457Y-52412725D01*
X49319386Y-52010953D01*
X48795093Y-51793248D01*
X48227397Y-51792752D01*
X47890500Y-51931956D01*
X47890500Y-49811601D01*
X48252011Y-49492621D01*
X48574950Y-49626717D01*
X49222211Y-49627282D01*
X49820418Y-49380108D01*
X50278499Y-48922825D01*
X50526717Y-48325050D01*
X50527282Y-47677789D01*
X50280108Y-47079582D01*
X49864891Y-46663640D01*
X49871622Y-46645570D01*
X48900000Y-45673948D01*
X47928378Y-46645570D01*
X47935285Y-46664112D01*
X47521501Y-47077175D01*
X47273283Y-47674950D01*
X47272718Y-48322211D01*
X47331085Y-48463471D01*
X46743150Y-48982237D01*
X46729904Y-48999608D01*
X46711743Y-49011743D01*
X46648653Y-49106164D01*
X46579786Y-49196478D01*
X46574196Y-49217595D01*
X46562061Y-49235757D01*
X46539905Y-49347143D01*
X46510845Y-49456928D01*
X46513762Y-49478575D01*
X46509500Y-49500000D01*
X46509500Y-51897676D01*
X46188836Y-51781594D01*
X45621724Y-51807341D01*
X45217368Y-51974831D01*
X45143133Y-52219184D01*
X45970000Y-53046052D01*
X45984142Y-53031909D01*
X46158091Y-53205858D01*
X46143948Y-53220000D01*
X46158091Y-53234143D01*
X45984142Y-53408091D01*
X45970000Y-53393948D01*
X45143133Y-54220816D01*
X45217368Y-54465169D01*
X45751164Y-54658406D01*
X46318276Y-54632659D01*
X46509500Y-54553451D01*
X46509500Y-59600000D01*
X46562061Y-59864243D01*
X46711743Y-60088257D01*
X47511743Y-60888257D01*
X47735757Y-61037939D01*
X48000000Y-61090500D01*
X52400000Y-61090500D01*
X52664243Y-61037939D01*
X52888257Y-60888257D01*
X53487231Y-60289283D01*
X54062769Y-60289283D01*
X54461743Y-60688257D01*
X54685757Y-60837939D01*
X54950000Y-60890500D01*
X62400000Y-60890500D01*
X62664243Y-60837939D01*
X62888257Y-60688257D01*
X68929426Y-54647088D01*
X69112603Y-54647248D01*
X69637275Y-54430457D01*
X70039047Y-54029386D01*
X70099881Y-53882882D01*
X70159543Y-54027275D01*
X70560614Y-54429047D01*
X71084907Y-54646752D01*
X71652603Y-54647248D01*
X72177275Y-54430457D01*
X72298000Y-54309943D01*
X72298000Y-59787077D01*
X72064933Y-59223011D01*
X71579544Y-58736774D01*
X70945029Y-58473300D01*
X70257986Y-58472701D01*
X69623011Y-58735067D01*
X69136774Y-59220456D01*
X68873300Y-59854971D01*
X68872701Y-60542014D01*
X69135067Y-61176989D01*
X69620456Y-61663226D01*
X70185854Y-61898000D01*
X41812923Y-61898000D01*
X42376989Y-61664933D01*
X42863226Y-61179544D01*
X43126700Y-60545029D01*
X43127299Y-59857986D01*
X42864933Y-59223011D01*
X42379544Y-58736774D01*
X41745029Y-58473300D01*
X41057986Y-58472701D01*
X40423011Y-58735067D01*
X39936774Y-59220456D01*
X39702000Y-59785854D01*
X39702000Y-53502603D01*
X42002752Y-53502603D01*
X42219543Y-54027275D01*
X42620614Y-54429047D01*
X43144907Y-54646752D01*
X43712603Y-54647248D01*
X44237275Y-54430457D01*
X44639047Y-54029386D01*
X44693760Y-53897621D01*
X44724831Y-53972632D01*
X44969184Y-54046867D01*
X45796052Y-53220000D01*
X44969184Y-52393133D01*
X44724831Y-52467368D01*
X44695973Y-52547084D01*
X44640457Y-52412725D01*
X44239386Y-52010953D01*
X43715093Y-51793248D01*
X43147397Y-51792752D01*
X42622725Y-52009543D01*
X42220953Y-52410614D01*
X42003248Y-52934907D01*
X42002752Y-53502603D01*
X39702000Y-53502603D01*
X39702000Y-45233411D01*
X47262686Y-45233411D01*
X47285300Y-45880277D01*
X47489338Y-46372869D01*
X47754430Y-46471622D01*
X48726052Y-45500000D01*
X47754430Y-44528378D01*
X47489338Y-44627131D01*
X47262686Y-45233411D01*
X39702000Y-45233411D01*
X39702000Y-40079750D01*
X53973000Y-40079750D01*
X53973000Y-41324718D01*
X54068455Y-41555167D01*
X54244833Y-41731545D01*
X54475282Y-41827000D01*
X56120250Y-41827000D01*
X56277000Y-41670250D01*
X56277000Y-39923000D01*
X56523000Y-39923000D01*
X56523000Y-41670250D01*
X56679750Y-41827000D01*
X58324718Y-41827000D01*
X58555167Y-41731545D01*
X58731545Y-41555167D01*
X58827000Y-41324718D01*
X58827000Y-40079750D01*
X58670250Y-39923000D01*
X56523000Y-39923000D01*
X56277000Y-39923000D01*
X54129750Y-39923000D01*
X53973000Y-40079750D01*
X39702000Y-40079750D01*
X39702000Y-37180000D01*
X41990717Y-37180000D01*
X41990717Y-38780000D01*
X42034437Y-39012352D01*
X42171757Y-39225753D01*
X42381283Y-39368917D01*
X42630000Y-39419283D01*
X44230000Y-39419283D01*
X44462352Y-39375563D01*
X44675753Y-39238243D01*
X44818917Y-39028717D01*
X44849551Y-38877440D01*
X45160614Y-39189047D01*
X45684907Y-39406752D01*
X46252603Y-39407248D01*
X46777275Y-39190457D01*
X46987282Y-38980816D01*
X47683133Y-38980816D01*
X47757368Y-39225169D01*
X48291164Y-39418406D01*
X48858276Y-39392659D01*
X49262632Y-39225169D01*
X49336867Y-38980816D01*
X50223133Y-38980816D01*
X50297368Y-39225169D01*
X50831164Y-39418406D01*
X51398276Y-39392659D01*
X51802632Y-39225169D01*
X51876867Y-38980816D01*
X51050000Y-38153948D01*
X50223133Y-38980816D01*
X49336867Y-38980816D01*
X48510000Y-38153948D01*
X47683133Y-38980816D01*
X46987282Y-38980816D01*
X47179047Y-38789386D01*
X47233760Y-38657621D01*
X47264831Y-38732632D01*
X47509184Y-38806867D01*
X48336052Y-37980000D01*
X48683948Y-37980000D01*
X49510816Y-38806867D01*
X49755169Y-38732632D01*
X49778330Y-38668653D01*
X49804831Y-38732632D01*
X50049184Y-38806867D01*
X50876052Y-37980000D01*
X51223948Y-37980000D01*
X52050816Y-38806867D01*
X52295169Y-38732632D01*
X52324027Y-38652916D01*
X52379543Y-38787275D01*
X52780614Y-39189047D01*
X53304907Y-39406752D01*
X53872603Y-39407248D01*
X53973000Y-39365765D01*
X53973000Y-39520250D01*
X54129750Y-39677000D01*
X56277000Y-39677000D01*
X56277000Y-39401797D01*
X56478276Y-39392659D01*
X56523000Y-39374134D01*
X56523000Y-39677000D01*
X58670250Y-39677000D01*
X58827000Y-39520250D01*
X58827000Y-39401343D01*
X59018276Y-39392659D01*
X59422632Y-39225169D01*
X59496867Y-38980816D01*
X58827000Y-38310948D01*
X58827000Y-38275282D01*
X58731545Y-38044833D01*
X58555167Y-37868455D01*
X58324718Y-37773000D01*
X58289052Y-37773000D01*
X57669184Y-37153133D01*
X57424831Y-37227368D01*
X57401670Y-37291347D01*
X57375169Y-37227368D01*
X57130816Y-37153133D01*
X56303948Y-37980000D01*
X56318091Y-37994143D01*
X56277000Y-38035233D01*
X56277000Y-37929750D01*
X56141651Y-37794401D01*
X56956867Y-36979184D01*
X57843133Y-36979184D01*
X58670000Y-37806052D01*
X59496867Y-36979184D01*
X59422632Y-36734831D01*
X58888836Y-36541594D01*
X58321724Y-36567341D01*
X57917368Y-36734831D01*
X57843133Y-36979184D01*
X56956867Y-36979184D01*
X56882632Y-36734831D01*
X56348836Y-36541594D01*
X55781724Y-36567341D01*
X55377368Y-36734831D01*
X55303133Y-36979184D01*
X56096948Y-37773000D01*
X55749052Y-37773000D01*
X55129184Y-37153133D01*
X54884831Y-37227368D01*
X54855973Y-37307084D01*
X54800457Y-37172725D01*
X54399386Y-36770953D01*
X53875093Y-36553248D01*
X53307397Y-36552752D01*
X52782725Y-36769543D01*
X52380953Y-37170614D01*
X52326240Y-37302379D01*
X52295169Y-37227368D01*
X52050816Y-37153133D01*
X51223948Y-37980000D01*
X50876052Y-37980000D01*
X50049184Y-37153133D01*
X49804831Y-37227368D01*
X49781670Y-37291347D01*
X49755169Y-37227368D01*
X49510816Y-37153133D01*
X48683948Y-37980000D01*
X48336052Y-37980000D01*
X47509184Y-37153133D01*
X47264831Y-37227368D01*
X47235973Y-37307084D01*
X47180457Y-37172725D01*
X46987254Y-36979184D01*
X47683133Y-36979184D01*
X48510000Y-37806052D01*
X49336867Y-36979184D01*
X50223133Y-36979184D01*
X51050000Y-37806052D01*
X51876867Y-36979184D01*
X51802632Y-36734831D01*
X51268836Y-36541594D01*
X50701724Y-36567341D01*
X50297368Y-36734831D01*
X50223133Y-36979184D01*
X49336867Y-36979184D01*
X49262632Y-36734831D01*
X48728836Y-36541594D01*
X48161724Y-36567341D01*
X47757368Y-36734831D01*
X47683133Y-36979184D01*
X46987254Y-36979184D01*
X46779386Y-36770953D01*
X46255093Y-36553248D01*
X45687397Y-36552752D01*
X45162725Y-36769543D01*
X44850666Y-37081058D01*
X44825563Y-36947648D01*
X44688243Y-36734247D01*
X44478717Y-36591083D01*
X44230000Y-36540717D01*
X42630000Y-36540717D01*
X42397648Y-36584437D01*
X42184247Y-36721757D01*
X42041083Y-36931283D01*
X41990717Y-37180000D01*
X39702000Y-37180000D01*
X39702000Y-31412923D01*
X39935067Y-31976989D01*
X40420456Y-32463226D01*
X41054971Y-32726700D01*
X41742014Y-32727299D01*
X42376989Y-32464933D01*
X42863226Y-31979544D01*
X43126700Y-31345029D01*
X43127299Y-30657986D01*
X42864933Y-30023011D01*
X42379544Y-29536774D01*
X41814146Y-29302000D01*
X70187077Y-29302000D01*
X69623011Y-29535067D01*
G36*
X67612721Y-54010765D02*
X62113986Y-59509500D01*
X60227000Y-59509500D01*
X60227000Y-59279750D01*
X60070250Y-59123000D01*
X58973000Y-59123000D01*
X58973000Y-59143000D01*
X58727000Y-59143000D01*
X58727000Y-59123000D01*
X58707000Y-59123000D01*
X58707000Y-58877000D01*
X58727000Y-58877000D01*
X58727000Y-57904750D01*
X58973000Y-57904750D01*
X58973000Y-58877000D01*
X60070250Y-58877000D01*
X60227000Y-58720250D01*
X60227000Y-58250282D01*
X60131545Y-58019833D01*
X59955167Y-57843455D01*
X59724718Y-57748000D01*
X59129750Y-57748000D01*
X58973000Y-57904750D01*
X58727000Y-57904750D01*
X58570250Y-57748000D01*
X57975282Y-57748000D01*
X57744833Y-57843455D01*
X57597709Y-57990579D01*
X57558243Y-57929247D01*
X57348717Y-57786083D01*
X57100000Y-57735717D01*
X55600000Y-57735717D01*
X55367648Y-57779437D01*
X55154247Y-57916757D01*
X55057451Y-58058421D01*
X54958243Y-57904247D01*
X54748717Y-57761083D01*
X54500000Y-57710717D01*
X53000000Y-57710717D01*
X52767648Y-57754437D01*
X52554247Y-57891757D01*
X52411083Y-58101283D01*
X52401442Y-58148892D01*
X52395563Y-58117648D01*
X52258243Y-57904247D01*
X52048717Y-57761083D01*
X51800000Y-57710717D01*
X51740500Y-57710717D01*
X51740500Y-57089283D01*
X51800000Y-57089283D01*
X52032352Y-57045563D01*
X52245753Y-56908243D01*
X52388917Y-56698717D01*
X52398558Y-56651108D01*
X52404437Y-56682352D01*
X52541757Y-56895753D01*
X52751283Y-57038917D01*
X53000000Y-57089283D01*
X54062769Y-57089283D01*
X54461743Y-57488257D01*
X54685757Y-57637939D01*
X54950000Y-57690500D01*
X61000000Y-57690500D01*
X61264243Y-57637939D01*
X61488257Y-57488257D01*
X64238257Y-54738257D01*
X64387939Y-54514243D01*
X64390934Y-54499188D01*
X64557275Y-54430457D01*
X64959047Y-54029386D01*
X65019881Y-53882882D01*
X65079543Y-54027275D01*
X65480614Y-54429047D01*
X66004907Y-54646752D01*
X66572603Y-54647248D01*
X67097275Y-54430457D01*
X67499047Y-54029386D01*
X67559881Y-53882882D01*
X67612721Y-54010765D01*
X67612721Y-54010765D01*
G37*
X67612721Y-54010765D02*
X62113986Y-59509500D01*
X60227000Y-59509500D01*
X60227000Y-59279750D01*
X60070250Y-59123000D01*
X58973000Y-59123000D01*
X58973000Y-59143000D01*
X58727000Y-59143000D01*
X58727000Y-59123000D01*
X58707000Y-59123000D01*
X58707000Y-58877000D01*
X58727000Y-58877000D01*
X58727000Y-57904750D01*
X58973000Y-57904750D01*
X58973000Y-58877000D01*
X60070250Y-58877000D01*
X60227000Y-58720250D01*
X60227000Y-58250282D01*
X60131545Y-58019833D01*
X59955167Y-57843455D01*
X59724718Y-57748000D01*
X59129750Y-57748000D01*
X58973000Y-57904750D01*
X58727000Y-57904750D01*
X58570250Y-57748000D01*
X57975282Y-57748000D01*
X57744833Y-57843455D01*
X57597709Y-57990579D01*
X57558243Y-57929247D01*
X57348717Y-57786083D01*
X57100000Y-57735717D01*
X55600000Y-57735717D01*
X55367648Y-57779437D01*
X55154247Y-57916757D01*
X55057451Y-58058421D01*
X54958243Y-57904247D01*
X54748717Y-57761083D01*
X54500000Y-57710717D01*
X53000000Y-57710717D01*
X52767648Y-57754437D01*
X52554247Y-57891757D01*
X52411083Y-58101283D01*
X52401442Y-58148892D01*
X52395563Y-58117648D01*
X52258243Y-57904247D01*
X52048717Y-57761083D01*
X51800000Y-57710717D01*
X51740500Y-57710717D01*
X51740500Y-57089283D01*
X51800000Y-57089283D01*
X52032352Y-57045563D01*
X52245753Y-56908243D01*
X52388917Y-56698717D01*
X52398558Y-56651108D01*
X52404437Y-56682352D01*
X52541757Y-56895753D01*
X52751283Y-57038917D01*
X53000000Y-57089283D01*
X54062769Y-57089283D01*
X54461743Y-57488257D01*
X54685757Y-57637939D01*
X54950000Y-57690500D01*
X61000000Y-57690500D01*
X61264243Y-57637939D01*
X61488257Y-57488257D01*
X64238257Y-54738257D01*
X64387939Y-54514243D01*
X64390934Y-54499188D01*
X64557275Y-54430457D01*
X64959047Y-54029386D01*
X65019881Y-53882882D01*
X65079543Y-54027275D01*
X65480614Y-54429047D01*
X66004907Y-54646752D01*
X66572603Y-54647248D01*
X67097275Y-54430457D01*
X67499047Y-54029386D01*
X67559881Y-53882882D01*
X67612721Y-54010765D01*
M02*
