G04 #@! TF.FileFunction,Legend,Bot*
%FSLAX46Y46*%
G04 Gerber Fmt 4.6, Leading zero omitted, Abs format (unit mm)*
G04 Created by KiCad (PCBNEW 4.0.7) date Tue Jul  3 21:06:47 2018*
%MOMM*%
%LPD*%
G01*
G04 APERTURE LIST*
%ADD10C,0.100000*%
%ADD11C,0.200000*%
%ADD12C,0.120000*%
%ADD13C,0.150000*%
G04 APERTURE END LIST*
D10*
D11*
X64585713Y-30892857D02*
X64085713Y-30892857D01*
X63871427Y-31678571D02*
X64585713Y-31678571D01*
X64585713Y-30178571D01*
X63871427Y-30178571D01*
X63228570Y-30678571D02*
X63228570Y-31678571D01*
X63228570Y-30821429D02*
X63157142Y-30750000D01*
X63014284Y-30678571D01*
X62799999Y-30678571D01*
X62657142Y-30750000D01*
X62585713Y-30892857D01*
X62585713Y-31678571D01*
X61228570Y-31607143D02*
X61371427Y-31678571D01*
X61657141Y-31678571D01*
X61799999Y-31607143D01*
X61871427Y-31535714D01*
X61942856Y-31392857D01*
X61942856Y-30964286D01*
X61871427Y-30821429D01*
X61799999Y-30750000D01*
X61657141Y-30678571D01*
X61371427Y-30678571D01*
X61228570Y-30750000D01*
X60371427Y-31678571D02*
X60514285Y-31607143D01*
X60585713Y-31535714D01*
X60657142Y-31392857D01*
X60657142Y-30964286D01*
X60585713Y-30821429D01*
X60514285Y-30750000D01*
X60371427Y-30678571D01*
X60157142Y-30678571D01*
X60014285Y-30750000D01*
X59942856Y-30821429D01*
X59871427Y-30964286D01*
X59871427Y-31392857D01*
X59942856Y-31535714D01*
X60014285Y-31607143D01*
X60157142Y-31678571D01*
X60371427Y-31678571D01*
X58585713Y-31678571D02*
X58585713Y-30178571D01*
X58585713Y-31607143D02*
X58728570Y-31678571D01*
X59014284Y-31678571D01*
X59157142Y-31607143D01*
X59228570Y-31535714D01*
X59299999Y-31392857D01*
X59299999Y-30964286D01*
X59228570Y-30821429D01*
X59157142Y-30750000D01*
X59014284Y-30678571D01*
X58728570Y-30678571D01*
X58585713Y-30750000D01*
X57299999Y-31607143D02*
X57442856Y-31678571D01*
X57728570Y-31678571D01*
X57871427Y-31607143D01*
X57942856Y-31464286D01*
X57942856Y-30892857D01*
X57871427Y-30750000D01*
X57728570Y-30678571D01*
X57442856Y-30678571D01*
X57299999Y-30750000D01*
X57228570Y-30892857D01*
X57228570Y-31035714D01*
X57942856Y-31178571D01*
X56585713Y-31678571D02*
X56585713Y-30678571D01*
X56585713Y-30964286D02*
X56514285Y-30821429D01*
X56442856Y-30750000D01*
X56299999Y-30678571D01*
X56157142Y-30678571D01*
X54514285Y-31678571D02*
X54514285Y-30178571D01*
X53942857Y-30178571D01*
X53799999Y-30250000D01*
X53728571Y-30321429D01*
X53657142Y-30464286D01*
X53657142Y-30678571D01*
X53728571Y-30821429D01*
X53799999Y-30892857D01*
X53942857Y-30964286D01*
X54514285Y-30964286D01*
X52157142Y-31535714D02*
X52228571Y-31607143D01*
X52442857Y-31678571D01*
X52585714Y-31678571D01*
X52799999Y-31607143D01*
X52942857Y-31464286D01*
X53014285Y-31321429D01*
X53085714Y-31035714D01*
X53085714Y-30821429D01*
X53014285Y-30535714D01*
X52942857Y-30392857D01*
X52799999Y-30250000D01*
X52585714Y-30178571D01*
X52442857Y-30178571D01*
X52228571Y-30250000D01*
X52157142Y-30321429D01*
X51014285Y-30892857D02*
X50799999Y-30964286D01*
X50728571Y-31035714D01*
X50657142Y-31178571D01*
X50657142Y-31392857D01*
X50728571Y-31535714D01*
X50799999Y-31607143D01*
X50942857Y-31678571D01*
X51514285Y-31678571D01*
X51514285Y-30178571D01*
X51014285Y-30178571D01*
X50871428Y-30250000D01*
X50799999Y-30321429D01*
X50728571Y-30464286D01*
X50728571Y-30607143D01*
X50799999Y-30750000D01*
X50871428Y-30821429D01*
X51014285Y-30892857D01*
X51514285Y-30892857D01*
X49014285Y-30678571D02*
X48657142Y-31678571D01*
X48300000Y-30678571D01*
X46942857Y-31678571D02*
X47800000Y-31678571D01*
X47371428Y-31678571D02*
X47371428Y-30178571D01*
X47514285Y-30392857D01*
X47657143Y-30535714D01*
X47800000Y-30607143D01*
D12*
X58100000Y-56650000D02*
X57100000Y-56650000D01*
X57100000Y-54950000D02*
X58100000Y-54950000D01*
X58100000Y-59850000D02*
X57100000Y-59850000D01*
X57100000Y-58150000D02*
X58100000Y-58150000D01*
X53000000Y-54920000D02*
X51800000Y-54920000D01*
X51800000Y-56680000D02*
X53000000Y-56680000D01*
X53000000Y-58120000D02*
X51800000Y-58120000D01*
X51800000Y-59880000D02*
X53000000Y-59880000D01*
D13*
X72640000Y-54490000D02*
X72640000Y-36710000D01*
X72640000Y-36710000D02*
X42160000Y-36710000D01*
X42160000Y-36710000D02*
X42160000Y-41790000D01*
X42160000Y-41790000D02*
X39620000Y-41790000D01*
X39620000Y-41790000D02*
X39620000Y-49410000D01*
X39620000Y-49410000D02*
X42160000Y-49410000D01*
X42160000Y-49410000D02*
X42160000Y-54490000D01*
X42160000Y-54490000D02*
X72640000Y-54490000D01*
X61166666Y-56157143D02*
X61214285Y-56204762D01*
X61357142Y-56252381D01*
X61452380Y-56252381D01*
X61595238Y-56204762D01*
X61690476Y-56109524D01*
X61738095Y-56014286D01*
X61785714Y-55823810D01*
X61785714Y-55680952D01*
X61738095Y-55490476D01*
X61690476Y-55395238D01*
X61595238Y-55300000D01*
X61452380Y-55252381D01*
X61357142Y-55252381D01*
X61214285Y-55300000D01*
X61166666Y-55347619D01*
X60214285Y-56252381D02*
X60785714Y-56252381D01*
X60500000Y-56252381D02*
X60500000Y-55252381D01*
X60595238Y-55395238D01*
X60690476Y-55490476D01*
X60785714Y-55538095D01*
X61166666Y-59357143D02*
X61214285Y-59404762D01*
X61357142Y-59452381D01*
X61452380Y-59452381D01*
X61595238Y-59404762D01*
X61690476Y-59309524D01*
X61738095Y-59214286D01*
X61785714Y-59023810D01*
X61785714Y-58880952D01*
X61738095Y-58690476D01*
X61690476Y-58595238D01*
X61595238Y-58500000D01*
X61452380Y-58452381D01*
X61357142Y-58452381D01*
X61214285Y-58500000D01*
X61166666Y-58547619D01*
X60785714Y-58547619D02*
X60738095Y-58500000D01*
X60642857Y-58452381D01*
X60404761Y-58452381D01*
X60309523Y-58500000D01*
X60261904Y-58547619D01*
X60214285Y-58642857D01*
X60214285Y-58738095D01*
X60261904Y-58880952D01*
X60833333Y-59452381D01*
X60214285Y-59452381D01*
X49166666Y-56252381D02*
X49500000Y-55776190D01*
X49738095Y-56252381D02*
X49738095Y-55252381D01*
X49357142Y-55252381D01*
X49261904Y-55300000D01*
X49214285Y-55347619D01*
X49166666Y-55442857D01*
X49166666Y-55585714D01*
X49214285Y-55680952D01*
X49261904Y-55728571D01*
X49357142Y-55776190D01*
X49738095Y-55776190D01*
X48214285Y-56252381D02*
X48785714Y-56252381D01*
X48500000Y-56252381D02*
X48500000Y-55252381D01*
X48595238Y-55395238D01*
X48690476Y-55490476D01*
X48785714Y-55538095D01*
X49166666Y-59452381D02*
X49500000Y-58976190D01*
X49738095Y-59452381D02*
X49738095Y-58452381D01*
X49357142Y-58452381D01*
X49261904Y-58500000D01*
X49214285Y-58547619D01*
X49166666Y-58642857D01*
X49166666Y-58785714D01*
X49214285Y-58880952D01*
X49261904Y-58928571D01*
X49357142Y-58976190D01*
X49738095Y-58976190D01*
X48785714Y-58547619D02*
X48738095Y-58500000D01*
X48642857Y-58452381D01*
X48404761Y-58452381D01*
X48309523Y-58500000D01*
X48261904Y-58547619D01*
X48214285Y-58642857D01*
X48214285Y-58738095D01*
X48261904Y-58880952D01*
X48833333Y-59452381D01*
X48214285Y-59452381D01*
M02*
