G04 #@! TF.FileFunction,Soldermask,Bot*
%FSLAX46Y46*%
G04 Gerber Fmt 4.6, Leading zero omitted, Abs format (unit mm)*
G04 Created by KiCad (PCBNEW 4.0.7) date Tue Jul  3 21:06:47 2018*
%MOMM*%
%LPD*%
G01*
G04 APERTURE LIST*
%ADD10C,0.100000*%
%ADD11R,4.000000X3.200000*%
%ADD12C,2.400000*%
%ADD13C,2.600000*%
%ADD14R,1.900000X1.650000*%
%ADD15R,1.900000X1.700000*%
%ADD16R,2.000000X2.000000*%
%ADD17C,2.000000*%
G04 APERTURE END LIST*
D10*
D11*
X56400000Y-39800000D03*
X56400000Y-51200000D03*
D12*
X63400000Y-43000000D03*
X63400000Y-48000000D03*
X48900000Y-43000000D03*
X48900000Y-45500000D03*
X48900000Y-48000000D03*
D13*
X70600000Y-60200000D03*
X41400000Y-60200000D03*
X70600000Y-31000000D03*
X41400000Y-31000000D03*
D14*
X56350000Y-55800000D03*
X58850000Y-55800000D03*
X56350000Y-59000000D03*
X58850000Y-59000000D03*
D15*
X51050000Y-55800000D03*
X53750000Y-55800000D03*
X51050000Y-59000000D03*
X53750000Y-59000000D03*
D16*
X43430000Y-37980000D03*
D17*
X45970000Y-37980000D03*
X48510000Y-37980000D03*
X51050000Y-37980000D03*
X53590000Y-37980000D03*
X56130000Y-37980000D03*
X58670000Y-37980000D03*
X61210000Y-37980000D03*
X63750000Y-37980000D03*
X66290000Y-37980000D03*
X68830000Y-37980000D03*
X71370000Y-37980000D03*
X71370000Y-53220000D03*
X68830000Y-53220000D03*
X66290000Y-53220000D03*
X63750000Y-53220000D03*
X61210000Y-53220000D03*
X58670000Y-53220000D03*
X56130000Y-53220000D03*
X53590000Y-53220000D03*
X51050000Y-53220000D03*
X48510000Y-53220000D03*
X45970000Y-53220000D03*
X43430000Y-53220000D03*
M02*
