G04 #@! TF.FileFunction,Copper,L1,Top,Signal*
%FSLAX46Y46*%
G04 Gerber Fmt 4.6, Leading zero omitted, Abs format (unit mm)*
G04 Created by KiCad (PCBNEW 4.0.7) date Tue Jul  3 21:06:47 2018*
%MOMM*%
%LPD*%
G01*
G04 APERTURE LIST*
%ADD10C,0.100000*%
%ADD11R,3.600000X2.800000*%
%ADD12C,2.000000*%
%ADD13R,1.600000X1.600000*%
%ADD14C,1.600000*%
%ADD15C,0.600000*%
%ADD16C,0.250000*%
%ADD17C,0.254000*%
G04 APERTURE END LIST*
D10*
D11*
X56400000Y-39800000D03*
X56400000Y-51200000D03*
D12*
X63400000Y-43000000D03*
X63400000Y-48000000D03*
X48900000Y-43000000D03*
X48900000Y-45500000D03*
X48900000Y-48000000D03*
D13*
X43430000Y-37980000D03*
D14*
X45970000Y-37980000D03*
X48510000Y-37980000D03*
X51050000Y-37980000D03*
X53590000Y-37980000D03*
X56130000Y-37980000D03*
X58670000Y-37980000D03*
X61210000Y-37980000D03*
X63750000Y-37980000D03*
X66290000Y-37980000D03*
X68830000Y-37980000D03*
X71370000Y-37980000D03*
X71370000Y-53220000D03*
X68830000Y-53220000D03*
X66290000Y-53220000D03*
X63750000Y-53220000D03*
X61210000Y-53220000D03*
X58670000Y-53220000D03*
X56130000Y-53220000D03*
X53590000Y-53220000D03*
X51050000Y-53220000D03*
X48510000Y-53220000D03*
X45970000Y-53220000D03*
X43430000Y-53220000D03*
D15*
X56250000Y-51500000D03*
D16*
X56250000Y-52000000D02*
X56500000Y-52000000D01*
X56250000Y-51500000D02*
X56250000Y-52000000D01*
X63400000Y-48000000D02*
X63400000Y-47400000D01*
D17*
G36*
X69618485Y-29528281D02*
X69129996Y-30015918D01*
X68865301Y-30653373D01*
X68864699Y-31343599D01*
X69128281Y-31981515D01*
X69615918Y-32470004D01*
X70253373Y-32734699D01*
X70943599Y-32735301D01*
X71581515Y-32471719D01*
X72070004Y-31984082D01*
X72290000Y-31454274D01*
X72290000Y-36870438D01*
X72183923Y-36764176D01*
X71656691Y-36545250D01*
X71085813Y-36544752D01*
X70558200Y-36762757D01*
X70154176Y-37166077D01*
X70100138Y-37296215D01*
X70047243Y-37168200D01*
X69643923Y-36764176D01*
X69116691Y-36545250D01*
X68545813Y-36544752D01*
X68018200Y-36762757D01*
X67614176Y-37166077D01*
X67560138Y-37296215D01*
X67507243Y-37168200D01*
X67103923Y-36764176D01*
X66576691Y-36545250D01*
X66005813Y-36544752D01*
X65478200Y-36762757D01*
X65074176Y-37166077D01*
X65020138Y-37296215D01*
X64967243Y-37168200D01*
X64563923Y-36764176D01*
X64036691Y-36545250D01*
X63465813Y-36544752D01*
X62938200Y-36762757D01*
X62534176Y-37166077D01*
X62480138Y-37296215D01*
X62427243Y-37168200D01*
X62023923Y-36764176D01*
X61496691Y-36545250D01*
X60925813Y-36544752D01*
X60398200Y-36762757D01*
X59994176Y-37166077D01*
X59946552Y-37280768D01*
X59923864Y-37225995D01*
X59677745Y-37151861D01*
X58849605Y-37980000D01*
X59677745Y-38808139D01*
X59923864Y-38734005D01*
X59944805Y-38675746D01*
X59992757Y-38791800D01*
X60396077Y-39195824D01*
X60923309Y-39414750D01*
X61494187Y-39415248D01*
X62021800Y-39197243D01*
X62425824Y-38793923D01*
X62479862Y-38663785D01*
X62532757Y-38791800D01*
X62936077Y-39195824D01*
X63463309Y-39414750D01*
X64034187Y-39415248D01*
X64561800Y-39197243D01*
X64965824Y-38793923D01*
X65019862Y-38663785D01*
X65072757Y-38791800D01*
X65476077Y-39195824D01*
X66003309Y-39414750D01*
X66574187Y-39415248D01*
X67101800Y-39197243D01*
X67505824Y-38793923D01*
X67559862Y-38663785D01*
X67612757Y-38791800D01*
X68016077Y-39195824D01*
X68543309Y-39414750D01*
X69114187Y-39415248D01*
X69641800Y-39197243D01*
X70045824Y-38793923D01*
X70099862Y-38663785D01*
X70152757Y-38791800D01*
X70556077Y-39195824D01*
X71083309Y-39414750D01*
X71654187Y-39415248D01*
X72181800Y-39197243D01*
X72290000Y-39089232D01*
X72290000Y-52110438D01*
X72183923Y-52004176D01*
X71656691Y-51785250D01*
X71085813Y-51784752D01*
X70558200Y-52002757D01*
X70154176Y-52406077D01*
X70100138Y-52536215D01*
X70047243Y-52408200D01*
X69643923Y-52004176D01*
X69116691Y-51785250D01*
X68545813Y-51784752D01*
X68018200Y-52002757D01*
X67614176Y-52406077D01*
X67560138Y-52536215D01*
X67507243Y-52408200D01*
X67103923Y-52004176D01*
X66576691Y-51785250D01*
X66005813Y-51784752D01*
X65478200Y-52002757D01*
X65074176Y-52406077D01*
X65020138Y-52536215D01*
X64967243Y-52408200D01*
X64563923Y-52004176D01*
X64036691Y-51785250D01*
X63465813Y-51784752D01*
X62938200Y-52002757D01*
X62534176Y-52406077D01*
X62480138Y-52536215D01*
X62427243Y-52408200D01*
X62023923Y-52004176D01*
X61496691Y-51785250D01*
X60925813Y-51784752D01*
X60398200Y-52002757D01*
X59994176Y-52406077D01*
X59946552Y-52520768D01*
X59923864Y-52465995D01*
X59677745Y-52391861D01*
X58849605Y-53220000D01*
X59677745Y-54048139D01*
X59923864Y-53974005D01*
X59944805Y-53915746D01*
X59992757Y-54031800D01*
X60396077Y-54435824D01*
X60923309Y-54654750D01*
X61494187Y-54655248D01*
X62021800Y-54437243D01*
X62425824Y-54033923D01*
X62479862Y-53903785D01*
X62532757Y-54031800D01*
X62936077Y-54435824D01*
X63463309Y-54654750D01*
X64034187Y-54655248D01*
X64561800Y-54437243D01*
X64965824Y-54033923D01*
X65019862Y-53903785D01*
X65072757Y-54031800D01*
X65476077Y-54435824D01*
X66003309Y-54654750D01*
X66574187Y-54655248D01*
X67101800Y-54437243D01*
X67505824Y-54033923D01*
X67559862Y-53903785D01*
X67612757Y-54031800D01*
X68016077Y-54435824D01*
X68543309Y-54654750D01*
X69114187Y-54655248D01*
X69641800Y-54437243D01*
X70045824Y-54033923D01*
X70099862Y-53903785D01*
X70152757Y-54031800D01*
X70556077Y-54435824D01*
X71083309Y-54654750D01*
X71654187Y-54655248D01*
X72181800Y-54437243D01*
X72290000Y-54329232D01*
X72290000Y-59746764D01*
X72071719Y-59218485D01*
X71584082Y-58729996D01*
X70946627Y-58465301D01*
X70256401Y-58464699D01*
X69618485Y-58728281D01*
X69129996Y-59215918D01*
X68865301Y-59853373D01*
X68864699Y-60543599D01*
X69128281Y-61181515D01*
X69615918Y-61670004D01*
X70145726Y-61890000D01*
X41853236Y-61890000D01*
X42381515Y-61671719D01*
X42870004Y-61184082D01*
X43134699Y-60546627D01*
X43135301Y-59856401D01*
X42871719Y-59218485D01*
X42384082Y-58729996D01*
X41746627Y-58465301D01*
X41056401Y-58464699D01*
X40418485Y-58728281D01*
X39929996Y-59215918D01*
X39710000Y-59745726D01*
X39710000Y-53504187D01*
X41994752Y-53504187D01*
X42212757Y-54031800D01*
X42616077Y-54435824D01*
X43143309Y-54654750D01*
X43714187Y-54655248D01*
X44241800Y-54437243D01*
X44451663Y-54227745D01*
X45141861Y-54227745D01*
X45215995Y-54473864D01*
X45753223Y-54666965D01*
X46323454Y-54639778D01*
X46724005Y-54473864D01*
X46798139Y-54227745D01*
X45970000Y-53399605D01*
X45141861Y-54227745D01*
X44451663Y-54227745D01*
X44645824Y-54033923D01*
X44693448Y-53919232D01*
X44716136Y-53974005D01*
X44962255Y-54048139D01*
X45790395Y-53220000D01*
X46149605Y-53220000D01*
X46977745Y-54048139D01*
X47223864Y-53974005D01*
X47244805Y-53915746D01*
X47292757Y-54031800D01*
X47696077Y-54435824D01*
X48223309Y-54654750D01*
X48794187Y-54655248D01*
X49321800Y-54437243D01*
X49725824Y-54033923D01*
X49779862Y-53903785D01*
X49832757Y-54031800D01*
X50236077Y-54435824D01*
X50763309Y-54654750D01*
X51334187Y-54655248D01*
X51861800Y-54437243D01*
X52265824Y-54033923D01*
X52319862Y-53903785D01*
X52372757Y-54031800D01*
X52776077Y-54435824D01*
X53303309Y-54654750D01*
X53874187Y-54655248D01*
X54401800Y-54437243D01*
X54611663Y-54227745D01*
X55301861Y-54227745D01*
X55375995Y-54473864D01*
X55913223Y-54666965D01*
X56483454Y-54639778D01*
X56884005Y-54473864D01*
X56958139Y-54227745D01*
X57841861Y-54227745D01*
X57915995Y-54473864D01*
X58453223Y-54666965D01*
X59023454Y-54639778D01*
X59424005Y-54473864D01*
X59498139Y-54227745D01*
X58670000Y-53399605D01*
X57841861Y-54227745D01*
X56958139Y-54227745D01*
X56130000Y-53399605D01*
X55301861Y-54227745D01*
X54611663Y-54227745D01*
X54805824Y-54033923D01*
X54853448Y-53919232D01*
X54876136Y-53974005D01*
X55122255Y-54048139D01*
X55935395Y-53235000D01*
X56114250Y-53235000D01*
X56233570Y-53115680D01*
X56272998Y-53155108D01*
X56272998Y-53235000D01*
X56324605Y-53235000D01*
X57137745Y-54048139D01*
X57383864Y-53974005D01*
X57398858Y-53932291D01*
X57416136Y-53974005D01*
X57662255Y-54048139D01*
X58490395Y-53220000D01*
X58476253Y-53205858D01*
X58532529Y-53149581D01*
X58559699Y-53138327D01*
X58663815Y-53034210D01*
X58670000Y-53040395D01*
X59498139Y-52212255D01*
X59424005Y-51966136D01*
X58886777Y-51773035D01*
X58835000Y-51775504D01*
X58835000Y-51485750D01*
X58676250Y-51327000D01*
X56527000Y-51327000D01*
X56527000Y-51347000D01*
X56273000Y-51347000D01*
X56273000Y-51327000D01*
X54123750Y-51327000D01*
X53965000Y-51485750D01*
X53965000Y-51821919D01*
X53876691Y-51785250D01*
X53305813Y-51784752D01*
X52778200Y-52002757D01*
X52374176Y-52406077D01*
X52320138Y-52536215D01*
X52267243Y-52408200D01*
X51863923Y-52004176D01*
X51336691Y-51785250D01*
X50765813Y-51784752D01*
X50238200Y-52002757D01*
X49834176Y-52406077D01*
X49780138Y-52536215D01*
X49727243Y-52408200D01*
X49323923Y-52004176D01*
X48796691Y-51785250D01*
X48225813Y-51784752D01*
X47698200Y-52002757D01*
X47294176Y-52406077D01*
X47246552Y-52520768D01*
X47223864Y-52465995D01*
X46977745Y-52391861D01*
X46149605Y-53220000D01*
X45790395Y-53220000D01*
X44962255Y-52391861D01*
X44716136Y-52465995D01*
X44695195Y-52524254D01*
X44647243Y-52408200D01*
X44451640Y-52212255D01*
X45141861Y-52212255D01*
X45970000Y-53040395D01*
X46798139Y-52212255D01*
X46724005Y-51966136D01*
X46186777Y-51773035D01*
X45616546Y-51800222D01*
X45215995Y-51966136D01*
X45141861Y-52212255D01*
X44451640Y-52212255D01*
X44243923Y-52004176D01*
X43716691Y-51785250D01*
X43145813Y-51784752D01*
X42618200Y-52002757D01*
X42214176Y-52406077D01*
X41995250Y-52933309D01*
X41994752Y-53504187D01*
X39710000Y-53504187D01*
X39710000Y-49673691D01*
X53965000Y-49673691D01*
X53965000Y-50914250D01*
X54123750Y-51073000D01*
X56273000Y-51073000D01*
X56273000Y-49323750D01*
X56527000Y-49323750D01*
X56527000Y-51073000D01*
X58676250Y-51073000D01*
X58835000Y-50914250D01*
X58835000Y-49673691D01*
X58738327Y-49440302D01*
X58559699Y-49261673D01*
X58326310Y-49165000D01*
X56685750Y-49165000D01*
X56527000Y-49323750D01*
X56273000Y-49323750D01*
X56114250Y-49165000D01*
X54473690Y-49165000D01*
X54240301Y-49261673D01*
X54061673Y-49440302D01*
X53965000Y-49673691D01*
X39710000Y-49673691D01*
X39710000Y-48323795D01*
X47264716Y-48323795D01*
X47513106Y-48924943D01*
X47972637Y-49385278D01*
X48573352Y-49634716D01*
X49223795Y-49635284D01*
X49824943Y-49386894D01*
X50285278Y-48927363D01*
X50534716Y-48326648D01*
X50534718Y-48323795D01*
X61764716Y-48323795D01*
X62013106Y-48924943D01*
X62472637Y-49385278D01*
X63073352Y-49634716D01*
X63723795Y-49635284D01*
X64324943Y-49386894D01*
X64785278Y-48927363D01*
X65034716Y-48326648D01*
X65035284Y-47676205D01*
X64786894Y-47075057D01*
X64327363Y-46614722D01*
X63726648Y-46365284D01*
X63076205Y-46364716D01*
X62475057Y-46613106D01*
X62014722Y-47072637D01*
X61765284Y-47673352D01*
X61764716Y-48323795D01*
X50534718Y-48323795D01*
X50535284Y-47676205D01*
X50286894Y-47075057D01*
X49870813Y-46658248D01*
X49872927Y-46652532D01*
X48900000Y-45679605D01*
X47927073Y-46652532D01*
X47929361Y-46658722D01*
X47514722Y-47072637D01*
X47265284Y-47673352D01*
X47264716Y-48323795D01*
X39710000Y-48323795D01*
X39710000Y-45235461D01*
X47254092Y-45235461D01*
X47278144Y-45885460D01*
X47480613Y-46374264D01*
X47747468Y-46472927D01*
X48720395Y-45500000D01*
X49079605Y-45500000D01*
X50052532Y-46472927D01*
X50319387Y-46374264D01*
X50545908Y-45764539D01*
X50521856Y-45114540D01*
X50319387Y-44625736D01*
X50052532Y-44527073D01*
X49079605Y-45500000D01*
X48720395Y-45500000D01*
X47747468Y-44527073D01*
X47480613Y-44625736D01*
X47254092Y-45235461D01*
X39710000Y-45235461D01*
X39710000Y-43323795D01*
X47264716Y-43323795D01*
X47513106Y-43924943D01*
X47929187Y-44341752D01*
X47927073Y-44347468D01*
X48900000Y-45320395D01*
X49872927Y-44347468D01*
X49870639Y-44341278D01*
X50285278Y-43927363D01*
X50534716Y-43326648D01*
X50534718Y-43323795D01*
X61764716Y-43323795D01*
X62013106Y-43924943D01*
X62472637Y-44385278D01*
X63073352Y-44634716D01*
X63723795Y-44635284D01*
X64324943Y-44386894D01*
X64785278Y-43927363D01*
X65034716Y-43326648D01*
X65035284Y-42676205D01*
X64786894Y-42075057D01*
X64327363Y-41614722D01*
X63726648Y-41365284D01*
X63076205Y-41364716D01*
X62475057Y-41613106D01*
X62014722Y-42072637D01*
X61765284Y-42673352D01*
X61764716Y-43323795D01*
X50534718Y-43323795D01*
X50535284Y-42676205D01*
X50286894Y-42075057D01*
X49827363Y-41614722D01*
X49226648Y-41365284D01*
X48576205Y-41364716D01*
X47975057Y-41613106D01*
X47514722Y-42072637D01*
X47265284Y-42673352D01*
X47264716Y-43323795D01*
X39710000Y-43323795D01*
X39710000Y-40085750D01*
X53965000Y-40085750D01*
X53965000Y-41326309D01*
X54061673Y-41559698D01*
X54240301Y-41738327D01*
X54473690Y-41835000D01*
X56114250Y-41835000D01*
X56273000Y-41676250D01*
X56273000Y-39927000D01*
X56527000Y-39927000D01*
X56527000Y-41676250D01*
X56685750Y-41835000D01*
X58326310Y-41835000D01*
X58559699Y-41738327D01*
X58738327Y-41559698D01*
X58835000Y-41326309D01*
X58835000Y-40085750D01*
X58676250Y-39927000D01*
X56527000Y-39927000D01*
X56273000Y-39927000D01*
X54123750Y-39927000D01*
X53965000Y-40085750D01*
X39710000Y-40085750D01*
X39710000Y-37180000D01*
X41982560Y-37180000D01*
X41982560Y-38780000D01*
X42026838Y-39015317D01*
X42165910Y-39231441D01*
X42378110Y-39376431D01*
X42630000Y-39427440D01*
X44230000Y-39427440D01*
X44465317Y-39383162D01*
X44681441Y-39244090D01*
X44826431Y-39031890D01*
X44854426Y-38893646D01*
X45156077Y-39195824D01*
X45683309Y-39414750D01*
X46254187Y-39415248D01*
X46781800Y-39197243D01*
X46991663Y-38987745D01*
X47681861Y-38987745D01*
X47755995Y-39233864D01*
X48293223Y-39426965D01*
X48863454Y-39399778D01*
X49264005Y-39233864D01*
X49338139Y-38987745D01*
X50221861Y-38987745D01*
X50295995Y-39233864D01*
X50833223Y-39426965D01*
X51403454Y-39399778D01*
X51804005Y-39233864D01*
X51878139Y-38987745D01*
X51050000Y-38159605D01*
X50221861Y-38987745D01*
X49338139Y-38987745D01*
X48510000Y-38159605D01*
X47681861Y-38987745D01*
X46991663Y-38987745D01*
X47185824Y-38793923D01*
X47233448Y-38679232D01*
X47256136Y-38734005D01*
X47502255Y-38808139D01*
X48330395Y-37980000D01*
X48689605Y-37980000D01*
X49517745Y-38808139D01*
X49763864Y-38734005D01*
X49778858Y-38692291D01*
X49796136Y-38734005D01*
X50042255Y-38808139D01*
X50870395Y-37980000D01*
X51229605Y-37980000D01*
X52057745Y-38808139D01*
X52303864Y-38734005D01*
X52324805Y-38675746D01*
X52372757Y-38791800D01*
X52776077Y-39195824D01*
X53303309Y-39414750D01*
X53874187Y-39415248D01*
X53965000Y-39377725D01*
X53965000Y-39514250D01*
X54123750Y-39673000D01*
X56273000Y-39673000D01*
X56273000Y-39409812D01*
X56483454Y-39399778D01*
X56527000Y-39381741D01*
X56527000Y-39673000D01*
X58676250Y-39673000D01*
X58835000Y-39514250D01*
X58835000Y-39408763D01*
X59023454Y-39399778D01*
X59424005Y-39233864D01*
X59498139Y-38987745D01*
X58835000Y-38324605D01*
X58835000Y-38273691D01*
X58738327Y-38040302D01*
X58559699Y-37861673D01*
X58326310Y-37765000D01*
X58275395Y-37765000D01*
X57662255Y-37151861D01*
X57416136Y-37225995D01*
X57401142Y-37267709D01*
X57383864Y-37225995D01*
X57137745Y-37151861D01*
X56309605Y-37980000D01*
X56323748Y-37994143D01*
X56273000Y-38044890D01*
X56273000Y-37923750D01*
X56139822Y-37790572D01*
X56958139Y-36972255D01*
X57841861Y-36972255D01*
X58670000Y-37800395D01*
X59498139Y-36972255D01*
X59424005Y-36726136D01*
X58886777Y-36533035D01*
X58316546Y-36560222D01*
X57915995Y-36726136D01*
X57841861Y-36972255D01*
X56958139Y-36972255D01*
X56884005Y-36726136D01*
X56346777Y-36533035D01*
X55776546Y-36560222D01*
X55375995Y-36726136D01*
X55301861Y-36972255D01*
X56094605Y-37765000D01*
X55735395Y-37765000D01*
X55122255Y-37151861D01*
X54876136Y-37225995D01*
X54855195Y-37284254D01*
X54807243Y-37168200D01*
X54403923Y-36764176D01*
X53876691Y-36545250D01*
X53305813Y-36544752D01*
X52778200Y-36762757D01*
X52374176Y-37166077D01*
X52326552Y-37280768D01*
X52303864Y-37225995D01*
X52057745Y-37151861D01*
X51229605Y-37980000D01*
X50870395Y-37980000D01*
X50042255Y-37151861D01*
X49796136Y-37225995D01*
X49781142Y-37267709D01*
X49763864Y-37225995D01*
X49517745Y-37151861D01*
X48689605Y-37980000D01*
X48330395Y-37980000D01*
X47502255Y-37151861D01*
X47256136Y-37225995D01*
X47235195Y-37284254D01*
X47187243Y-37168200D01*
X46991640Y-36972255D01*
X47681861Y-36972255D01*
X48510000Y-37800395D01*
X49338139Y-36972255D01*
X50221861Y-36972255D01*
X51050000Y-37800395D01*
X51878139Y-36972255D01*
X51804005Y-36726136D01*
X51266777Y-36533035D01*
X50696546Y-36560222D01*
X50295995Y-36726136D01*
X50221861Y-36972255D01*
X49338139Y-36972255D01*
X49264005Y-36726136D01*
X48726777Y-36533035D01*
X48156546Y-36560222D01*
X47755995Y-36726136D01*
X47681861Y-36972255D01*
X46991640Y-36972255D01*
X46783923Y-36764176D01*
X46256691Y-36545250D01*
X45685813Y-36544752D01*
X45158200Y-36762757D01*
X44855742Y-37064688D01*
X44833162Y-36944683D01*
X44694090Y-36728559D01*
X44481890Y-36583569D01*
X44230000Y-36532560D01*
X42630000Y-36532560D01*
X42394683Y-36576838D01*
X42178559Y-36715910D01*
X42033569Y-36928110D01*
X41982560Y-37180000D01*
X39710000Y-37180000D01*
X39710000Y-31453236D01*
X39928281Y-31981515D01*
X40415918Y-32470004D01*
X41053373Y-32734699D01*
X41743599Y-32735301D01*
X42381515Y-32471719D01*
X42870004Y-31984082D01*
X43134699Y-31346627D01*
X43135301Y-30656401D01*
X42871719Y-30018485D01*
X42384082Y-29529996D01*
X41854274Y-29310000D01*
X70146764Y-29310000D01*
X69618485Y-29528281D01*
X69618485Y-29528281D01*
G37*
X69618485Y-29528281D02*
X69129996Y-30015918D01*
X68865301Y-30653373D01*
X68864699Y-31343599D01*
X69128281Y-31981515D01*
X69615918Y-32470004D01*
X70253373Y-32734699D01*
X70943599Y-32735301D01*
X71581515Y-32471719D01*
X72070004Y-31984082D01*
X72290000Y-31454274D01*
X72290000Y-36870438D01*
X72183923Y-36764176D01*
X71656691Y-36545250D01*
X71085813Y-36544752D01*
X70558200Y-36762757D01*
X70154176Y-37166077D01*
X70100138Y-37296215D01*
X70047243Y-37168200D01*
X69643923Y-36764176D01*
X69116691Y-36545250D01*
X68545813Y-36544752D01*
X68018200Y-36762757D01*
X67614176Y-37166077D01*
X67560138Y-37296215D01*
X67507243Y-37168200D01*
X67103923Y-36764176D01*
X66576691Y-36545250D01*
X66005813Y-36544752D01*
X65478200Y-36762757D01*
X65074176Y-37166077D01*
X65020138Y-37296215D01*
X64967243Y-37168200D01*
X64563923Y-36764176D01*
X64036691Y-36545250D01*
X63465813Y-36544752D01*
X62938200Y-36762757D01*
X62534176Y-37166077D01*
X62480138Y-37296215D01*
X62427243Y-37168200D01*
X62023923Y-36764176D01*
X61496691Y-36545250D01*
X60925813Y-36544752D01*
X60398200Y-36762757D01*
X59994176Y-37166077D01*
X59946552Y-37280768D01*
X59923864Y-37225995D01*
X59677745Y-37151861D01*
X58849605Y-37980000D01*
X59677745Y-38808139D01*
X59923864Y-38734005D01*
X59944805Y-38675746D01*
X59992757Y-38791800D01*
X60396077Y-39195824D01*
X60923309Y-39414750D01*
X61494187Y-39415248D01*
X62021800Y-39197243D01*
X62425824Y-38793923D01*
X62479862Y-38663785D01*
X62532757Y-38791800D01*
X62936077Y-39195824D01*
X63463309Y-39414750D01*
X64034187Y-39415248D01*
X64561800Y-39197243D01*
X64965824Y-38793923D01*
X65019862Y-38663785D01*
X65072757Y-38791800D01*
X65476077Y-39195824D01*
X66003309Y-39414750D01*
X66574187Y-39415248D01*
X67101800Y-39197243D01*
X67505824Y-38793923D01*
X67559862Y-38663785D01*
X67612757Y-38791800D01*
X68016077Y-39195824D01*
X68543309Y-39414750D01*
X69114187Y-39415248D01*
X69641800Y-39197243D01*
X70045824Y-38793923D01*
X70099862Y-38663785D01*
X70152757Y-38791800D01*
X70556077Y-39195824D01*
X71083309Y-39414750D01*
X71654187Y-39415248D01*
X72181800Y-39197243D01*
X72290000Y-39089232D01*
X72290000Y-52110438D01*
X72183923Y-52004176D01*
X71656691Y-51785250D01*
X71085813Y-51784752D01*
X70558200Y-52002757D01*
X70154176Y-52406077D01*
X70100138Y-52536215D01*
X70047243Y-52408200D01*
X69643923Y-52004176D01*
X69116691Y-51785250D01*
X68545813Y-51784752D01*
X68018200Y-52002757D01*
X67614176Y-52406077D01*
X67560138Y-52536215D01*
X67507243Y-52408200D01*
X67103923Y-52004176D01*
X66576691Y-51785250D01*
X66005813Y-51784752D01*
X65478200Y-52002757D01*
X65074176Y-52406077D01*
X65020138Y-52536215D01*
X64967243Y-52408200D01*
X64563923Y-52004176D01*
X64036691Y-51785250D01*
X63465813Y-51784752D01*
X62938200Y-52002757D01*
X62534176Y-52406077D01*
X62480138Y-52536215D01*
X62427243Y-52408200D01*
X62023923Y-52004176D01*
X61496691Y-51785250D01*
X60925813Y-51784752D01*
X60398200Y-52002757D01*
X59994176Y-52406077D01*
X59946552Y-52520768D01*
X59923864Y-52465995D01*
X59677745Y-52391861D01*
X58849605Y-53220000D01*
X59677745Y-54048139D01*
X59923864Y-53974005D01*
X59944805Y-53915746D01*
X59992757Y-54031800D01*
X60396077Y-54435824D01*
X60923309Y-54654750D01*
X61494187Y-54655248D01*
X62021800Y-54437243D01*
X62425824Y-54033923D01*
X62479862Y-53903785D01*
X62532757Y-54031800D01*
X62936077Y-54435824D01*
X63463309Y-54654750D01*
X64034187Y-54655248D01*
X64561800Y-54437243D01*
X64965824Y-54033923D01*
X65019862Y-53903785D01*
X65072757Y-54031800D01*
X65476077Y-54435824D01*
X66003309Y-54654750D01*
X66574187Y-54655248D01*
X67101800Y-54437243D01*
X67505824Y-54033923D01*
X67559862Y-53903785D01*
X67612757Y-54031800D01*
X68016077Y-54435824D01*
X68543309Y-54654750D01*
X69114187Y-54655248D01*
X69641800Y-54437243D01*
X70045824Y-54033923D01*
X70099862Y-53903785D01*
X70152757Y-54031800D01*
X70556077Y-54435824D01*
X71083309Y-54654750D01*
X71654187Y-54655248D01*
X72181800Y-54437243D01*
X72290000Y-54329232D01*
X72290000Y-59746764D01*
X72071719Y-59218485D01*
X71584082Y-58729996D01*
X70946627Y-58465301D01*
X70256401Y-58464699D01*
X69618485Y-58728281D01*
X69129996Y-59215918D01*
X68865301Y-59853373D01*
X68864699Y-60543599D01*
X69128281Y-61181515D01*
X69615918Y-61670004D01*
X70145726Y-61890000D01*
X41853236Y-61890000D01*
X42381515Y-61671719D01*
X42870004Y-61184082D01*
X43134699Y-60546627D01*
X43135301Y-59856401D01*
X42871719Y-59218485D01*
X42384082Y-58729996D01*
X41746627Y-58465301D01*
X41056401Y-58464699D01*
X40418485Y-58728281D01*
X39929996Y-59215918D01*
X39710000Y-59745726D01*
X39710000Y-53504187D01*
X41994752Y-53504187D01*
X42212757Y-54031800D01*
X42616077Y-54435824D01*
X43143309Y-54654750D01*
X43714187Y-54655248D01*
X44241800Y-54437243D01*
X44451663Y-54227745D01*
X45141861Y-54227745D01*
X45215995Y-54473864D01*
X45753223Y-54666965D01*
X46323454Y-54639778D01*
X46724005Y-54473864D01*
X46798139Y-54227745D01*
X45970000Y-53399605D01*
X45141861Y-54227745D01*
X44451663Y-54227745D01*
X44645824Y-54033923D01*
X44693448Y-53919232D01*
X44716136Y-53974005D01*
X44962255Y-54048139D01*
X45790395Y-53220000D01*
X46149605Y-53220000D01*
X46977745Y-54048139D01*
X47223864Y-53974005D01*
X47244805Y-53915746D01*
X47292757Y-54031800D01*
X47696077Y-54435824D01*
X48223309Y-54654750D01*
X48794187Y-54655248D01*
X49321800Y-54437243D01*
X49725824Y-54033923D01*
X49779862Y-53903785D01*
X49832757Y-54031800D01*
X50236077Y-54435824D01*
X50763309Y-54654750D01*
X51334187Y-54655248D01*
X51861800Y-54437243D01*
X52265824Y-54033923D01*
X52319862Y-53903785D01*
X52372757Y-54031800D01*
X52776077Y-54435824D01*
X53303309Y-54654750D01*
X53874187Y-54655248D01*
X54401800Y-54437243D01*
X54611663Y-54227745D01*
X55301861Y-54227745D01*
X55375995Y-54473864D01*
X55913223Y-54666965D01*
X56483454Y-54639778D01*
X56884005Y-54473864D01*
X56958139Y-54227745D01*
X57841861Y-54227745D01*
X57915995Y-54473864D01*
X58453223Y-54666965D01*
X59023454Y-54639778D01*
X59424005Y-54473864D01*
X59498139Y-54227745D01*
X58670000Y-53399605D01*
X57841861Y-54227745D01*
X56958139Y-54227745D01*
X56130000Y-53399605D01*
X55301861Y-54227745D01*
X54611663Y-54227745D01*
X54805824Y-54033923D01*
X54853448Y-53919232D01*
X54876136Y-53974005D01*
X55122255Y-54048139D01*
X55935395Y-53235000D01*
X56114250Y-53235000D01*
X56233570Y-53115680D01*
X56272998Y-53155108D01*
X56272998Y-53235000D01*
X56324605Y-53235000D01*
X57137745Y-54048139D01*
X57383864Y-53974005D01*
X57398858Y-53932291D01*
X57416136Y-53974005D01*
X57662255Y-54048139D01*
X58490395Y-53220000D01*
X58476253Y-53205858D01*
X58532529Y-53149581D01*
X58559699Y-53138327D01*
X58663815Y-53034210D01*
X58670000Y-53040395D01*
X59498139Y-52212255D01*
X59424005Y-51966136D01*
X58886777Y-51773035D01*
X58835000Y-51775504D01*
X58835000Y-51485750D01*
X58676250Y-51327000D01*
X56527000Y-51327000D01*
X56527000Y-51347000D01*
X56273000Y-51347000D01*
X56273000Y-51327000D01*
X54123750Y-51327000D01*
X53965000Y-51485750D01*
X53965000Y-51821919D01*
X53876691Y-51785250D01*
X53305813Y-51784752D01*
X52778200Y-52002757D01*
X52374176Y-52406077D01*
X52320138Y-52536215D01*
X52267243Y-52408200D01*
X51863923Y-52004176D01*
X51336691Y-51785250D01*
X50765813Y-51784752D01*
X50238200Y-52002757D01*
X49834176Y-52406077D01*
X49780138Y-52536215D01*
X49727243Y-52408200D01*
X49323923Y-52004176D01*
X48796691Y-51785250D01*
X48225813Y-51784752D01*
X47698200Y-52002757D01*
X47294176Y-52406077D01*
X47246552Y-52520768D01*
X47223864Y-52465995D01*
X46977745Y-52391861D01*
X46149605Y-53220000D01*
X45790395Y-53220000D01*
X44962255Y-52391861D01*
X44716136Y-52465995D01*
X44695195Y-52524254D01*
X44647243Y-52408200D01*
X44451640Y-52212255D01*
X45141861Y-52212255D01*
X45970000Y-53040395D01*
X46798139Y-52212255D01*
X46724005Y-51966136D01*
X46186777Y-51773035D01*
X45616546Y-51800222D01*
X45215995Y-51966136D01*
X45141861Y-52212255D01*
X44451640Y-52212255D01*
X44243923Y-52004176D01*
X43716691Y-51785250D01*
X43145813Y-51784752D01*
X42618200Y-52002757D01*
X42214176Y-52406077D01*
X41995250Y-52933309D01*
X41994752Y-53504187D01*
X39710000Y-53504187D01*
X39710000Y-49673691D01*
X53965000Y-49673691D01*
X53965000Y-50914250D01*
X54123750Y-51073000D01*
X56273000Y-51073000D01*
X56273000Y-49323750D01*
X56527000Y-49323750D01*
X56527000Y-51073000D01*
X58676250Y-51073000D01*
X58835000Y-50914250D01*
X58835000Y-49673691D01*
X58738327Y-49440302D01*
X58559699Y-49261673D01*
X58326310Y-49165000D01*
X56685750Y-49165000D01*
X56527000Y-49323750D01*
X56273000Y-49323750D01*
X56114250Y-49165000D01*
X54473690Y-49165000D01*
X54240301Y-49261673D01*
X54061673Y-49440302D01*
X53965000Y-49673691D01*
X39710000Y-49673691D01*
X39710000Y-48323795D01*
X47264716Y-48323795D01*
X47513106Y-48924943D01*
X47972637Y-49385278D01*
X48573352Y-49634716D01*
X49223795Y-49635284D01*
X49824943Y-49386894D01*
X50285278Y-48927363D01*
X50534716Y-48326648D01*
X50534718Y-48323795D01*
X61764716Y-48323795D01*
X62013106Y-48924943D01*
X62472637Y-49385278D01*
X63073352Y-49634716D01*
X63723795Y-49635284D01*
X64324943Y-49386894D01*
X64785278Y-48927363D01*
X65034716Y-48326648D01*
X65035284Y-47676205D01*
X64786894Y-47075057D01*
X64327363Y-46614722D01*
X63726648Y-46365284D01*
X63076205Y-46364716D01*
X62475057Y-46613106D01*
X62014722Y-47072637D01*
X61765284Y-47673352D01*
X61764716Y-48323795D01*
X50534718Y-48323795D01*
X50535284Y-47676205D01*
X50286894Y-47075057D01*
X49870813Y-46658248D01*
X49872927Y-46652532D01*
X48900000Y-45679605D01*
X47927073Y-46652532D01*
X47929361Y-46658722D01*
X47514722Y-47072637D01*
X47265284Y-47673352D01*
X47264716Y-48323795D01*
X39710000Y-48323795D01*
X39710000Y-45235461D01*
X47254092Y-45235461D01*
X47278144Y-45885460D01*
X47480613Y-46374264D01*
X47747468Y-46472927D01*
X48720395Y-45500000D01*
X49079605Y-45500000D01*
X50052532Y-46472927D01*
X50319387Y-46374264D01*
X50545908Y-45764539D01*
X50521856Y-45114540D01*
X50319387Y-44625736D01*
X50052532Y-44527073D01*
X49079605Y-45500000D01*
X48720395Y-45500000D01*
X47747468Y-44527073D01*
X47480613Y-44625736D01*
X47254092Y-45235461D01*
X39710000Y-45235461D01*
X39710000Y-43323795D01*
X47264716Y-43323795D01*
X47513106Y-43924943D01*
X47929187Y-44341752D01*
X47927073Y-44347468D01*
X48900000Y-45320395D01*
X49872927Y-44347468D01*
X49870639Y-44341278D01*
X50285278Y-43927363D01*
X50534716Y-43326648D01*
X50534718Y-43323795D01*
X61764716Y-43323795D01*
X62013106Y-43924943D01*
X62472637Y-44385278D01*
X63073352Y-44634716D01*
X63723795Y-44635284D01*
X64324943Y-44386894D01*
X64785278Y-43927363D01*
X65034716Y-43326648D01*
X65035284Y-42676205D01*
X64786894Y-42075057D01*
X64327363Y-41614722D01*
X63726648Y-41365284D01*
X63076205Y-41364716D01*
X62475057Y-41613106D01*
X62014722Y-42072637D01*
X61765284Y-42673352D01*
X61764716Y-43323795D01*
X50534718Y-43323795D01*
X50535284Y-42676205D01*
X50286894Y-42075057D01*
X49827363Y-41614722D01*
X49226648Y-41365284D01*
X48576205Y-41364716D01*
X47975057Y-41613106D01*
X47514722Y-42072637D01*
X47265284Y-42673352D01*
X47264716Y-43323795D01*
X39710000Y-43323795D01*
X39710000Y-40085750D01*
X53965000Y-40085750D01*
X53965000Y-41326309D01*
X54061673Y-41559698D01*
X54240301Y-41738327D01*
X54473690Y-41835000D01*
X56114250Y-41835000D01*
X56273000Y-41676250D01*
X56273000Y-39927000D01*
X56527000Y-39927000D01*
X56527000Y-41676250D01*
X56685750Y-41835000D01*
X58326310Y-41835000D01*
X58559699Y-41738327D01*
X58738327Y-41559698D01*
X58835000Y-41326309D01*
X58835000Y-40085750D01*
X58676250Y-39927000D01*
X56527000Y-39927000D01*
X56273000Y-39927000D01*
X54123750Y-39927000D01*
X53965000Y-40085750D01*
X39710000Y-40085750D01*
X39710000Y-37180000D01*
X41982560Y-37180000D01*
X41982560Y-38780000D01*
X42026838Y-39015317D01*
X42165910Y-39231441D01*
X42378110Y-39376431D01*
X42630000Y-39427440D01*
X44230000Y-39427440D01*
X44465317Y-39383162D01*
X44681441Y-39244090D01*
X44826431Y-39031890D01*
X44854426Y-38893646D01*
X45156077Y-39195824D01*
X45683309Y-39414750D01*
X46254187Y-39415248D01*
X46781800Y-39197243D01*
X46991663Y-38987745D01*
X47681861Y-38987745D01*
X47755995Y-39233864D01*
X48293223Y-39426965D01*
X48863454Y-39399778D01*
X49264005Y-39233864D01*
X49338139Y-38987745D01*
X50221861Y-38987745D01*
X50295995Y-39233864D01*
X50833223Y-39426965D01*
X51403454Y-39399778D01*
X51804005Y-39233864D01*
X51878139Y-38987745D01*
X51050000Y-38159605D01*
X50221861Y-38987745D01*
X49338139Y-38987745D01*
X48510000Y-38159605D01*
X47681861Y-38987745D01*
X46991663Y-38987745D01*
X47185824Y-38793923D01*
X47233448Y-38679232D01*
X47256136Y-38734005D01*
X47502255Y-38808139D01*
X48330395Y-37980000D01*
X48689605Y-37980000D01*
X49517745Y-38808139D01*
X49763864Y-38734005D01*
X49778858Y-38692291D01*
X49796136Y-38734005D01*
X50042255Y-38808139D01*
X50870395Y-37980000D01*
X51229605Y-37980000D01*
X52057745Y-38808139D01*
X52303864Y-38734005D01*
X52324805Y-38675746D01*
X52372757Y-38791800D01*
X52776077Y-39195824D01*
X53303309Y-39414750D01*
X53874187Y-39415248D01*
X53965000Y-39377725D01*
X53965000Y-39514250D01*
X54123750Y-39673000D01*
X56273000Y-39673000D01*
X56273000Y-39409812D01*
X56483454Y-39399778D01*
X56527000Y-39381741D01*
X56527000Y-39673000D01*
X58676250Y-39673000D01*
X58835000Y-39514250D01*
X58835000Y-39408763D01*
X59023454Y-39399778D01*
X59424005Y-39233864D01*
X59498139Y-38987745D01*
X58835000Y-38324605D01*
X58835000Y-38273691D01*
X58738327Y-38040302D01*
X58559699Y-37861673D01*
X58326310Y-37765000D01*
X58275395Y-37765000D01*
X57662255Y-37151861D01*
X57416136Y-37225995D01*
X57401142Y-37267709D01*
X57383864Y-37225995D01*
X57137745Y-37151861D01*
X56309605Y-37980000D01*
X56323748Y-37994143D01*
X56273000Y-38044890D01*
X56273000Y-37923750D01*
X56139822Y-37790572D01*
X56958139Y-36972255D01*
X57841861Y-36972255D01*
X58670000Y-37800395D01*
X59498139Y-36972255D01*
X59424005Y-36726136D01*
X58886777Y-36533035D01*
X58316546Y-36560222D01*
X57915995Y-36726136D01*
X57841861Y-36972255D01*
X56958139Y-36972255D01*
X56884005Y-36726136D01*
X56346777Y-36533035D01*
X55776546Y-36560222D01*
X55375995Y-36726136D01*
X55301861Y-36972255D01*
X56094605Y-37765000D01*
X55735395Y-37765000D01*
X55122255Y-37151861D01*
X54876136Y-37225995D01*
X54855195Y-37284254D01*
X54807243Y-37168200D01*
X54403923Y-36764176D01*
X53876691Y-36545250D01*
X53305813Y-36544752D01*
X52778200Y-36762757D01*
X52374176Y-37166077D01*
X52326552Y-37280768D01*
X52303864Y-37225995D01*
X52057745Y-37151861D01*
X51229605Y-37980000D01*
X50870395Y-37980000D01*
X50042255Y-37151861D01*
X49796136Y-37225995D01*
X49781142Y-37267709D01*
X49763864Y-37225995D01*
X49517745Y-37151861D01*
X48689605Y-37980000D01*
X48330395Y-37980000D01*
X47502255Y-37151861D01*
X47256136Y-37225995D01*
X47235195Y-37284254D01*
X47187243Y-37168200D01*
X46991640Y-36972255D01*
X47681861Y-36972255D01*
X48510000Y-37800395D01*
X49338139Y-36972255D01*
X50221861Y-36972255D01*
X51050000Y-37800395D01*
X51878139Y-36972255D01*
X51804005Y-36726136D01*
X51266777Y-36533035D01*
X50696546Y-36560222D01*
X50295995Y-36726136D01*
X50221861Y-36972255D01*
X49338139Y-36972255D01*
X49264005Y-36726136D01*
X48726777Y-36533035D01*
X48156546Y-36560222D01*
X47755995Y-36726136D01*
X47681861Y-36972255D01*
X46991640Y-36972255D01*
X46783923Y-36764176D01*
X46256691Y-36545250D01*
X45685813Y-36544752D01*
X45158200Y-36762757D01*
X44855742Y-37064688D01*
X44833162Y-36944683D01*
X44694090Y-36728559D01*
X44481890Y-36583569D01*
X44230000Y-36532560D01*
X42630000Y-36532560D01*
X42394683Y-36576838D01*
X42178559Y-36715910D01*
X42033569Y-36928110D01*
X41982560Y-37180000D01*
X39710000Y-37180000D01*
X39710000Y-31453236D01*
X39928281Y-31981515D01*
X40415918Y-32470004D01*
X41053373Y-32734699D01*
X41743599Y-32735301D01*
X42381515Y-32471719D01*
X42870004Y-31984082D01*
X43134699Y-31346627D01*
X43135301Y-30656401D01*
X42871719Y-30018485D01*
X42384082Y-29529996D01*
X41854274Y-29310000D01*
X70146764Y-29310000D01*
X69618485Y-29528281D01*
M02*
