M48
;DRILL file {KiCad 4.0.7} date Tue Jul  3 21:06:51 2018
;FORMAT={-:-/ absolute / inch / decimal}
FMAT,2
INCH,TZ
T1C0.016
T2C0.039
T3C0.043
T4C0.071
%
G90
G05
M72
T1
X2.2146Y-2.0276
T2
X1.9252Y-1.6929
X1.9252Y-1.7913
X1.9252Y-1.8898
X2.4961Y-1.6929
X2.4961Y-1.8898
T3
X1.7098Y-1.4953
X1.7098Y-2.0953
X1.8098Y-1.4953
X1.8098Y-2.0953
X1.9098Y-1.4953
X1.9098Y-2.0953
X2.0098Y-1.4953
X2.0098Y-2.0953
X2.1098Y-1.4953
X2.1098Y-2.0953
X2.2098Y-1.4953
X2.2098Y-2.0953
X2.3098Y-1.4953
X2.3098Y-2.0953
X2.4098Y-1.4953
X2.4098Y-2.0953
X2.5098Y-1.4953
X2.5098Y-2.0953
X2.6098Y-1.4953
X2.6098Y-2.0953
X2.7098Y-1.4953
X2.7098Y-2.0953
X2.8098Y-1.4953
X2.8098Y-2.0953
T4
X2.2362Y-1.5669G85X2.2047Y-1.5669
G05
X2.2362Y-2.0157G85X2.2047Y-2.0157
G05
T0
M30
