G04 #@! TF.FileFunction,Copper,L2,Bot,Signal*
%FSLAX46Y46*%
G04 Gerber Fmt 4.6, Leading zero omitted, Abs format (unit mm)*
G04 Created by KiCad (PCBNEW 4.0.7) date Tue Jul  3 21:07:43 2018*
%MOMM*%
%LPD*%
G01*
G04 APERTURE LIST*
%ADD10C,0.100000*%
%ADD11C,0.254000*%
G04 APERTURE END LIST*
D10*
D11*
G36*
X39906637Y-61132955D02*
X39918917Y-61137903D01*
X39935067Y-61176989D01*
X40420456Y-61663226D01*
X40461823Y-61680403D01*
X40467045Y-61693363D01*
X40762853Y-61805402D01*
X40985854Y-61898000D01*
X39702000Y-61898000D01*
X39702000Y-60638920D01*
X39906637Y-61132955D01*
X39906637Y-61132955D01*
G37*
X39906637Y-61132955D02*
X39918917Y-61137903D01*
X39935067Y-61176989D01*
X40420456Y-61663226D01*
X40461823Y-61680403D01*
X40467045Y-61693363D01*
X40762853Y-61805402D01*
X40985854Y-61898000D01*
X39702000Y-61898000D01*
X39702000Y-60638920D01*
X39906637Y-61132955D01*
G36*
X69667045Y-29506637D02*
X69662097Y-29518917D01*
X69623011Y-29535067D01*
X69136774Y-30020456D01*
X69119597Y-30061823D01*
X69106637Y-30067045D01*
X68994598Y-30362853D01*
X68873300Y-30654971D01*
X68873275Y-30683173D01*
X68863286Y-30709547D01*
X68872977Y-31025736D01*
X68872701Y-31342014D01*
X68883469Y-31368074D01*
X68884333Y-31396268D01*
X69106637Y-31932955D01*
X69118917Y-31937903D01*
X69135067Y-31976989D01*
X69620456Y-32463226D01*
X69661823Y-32480403D01*
X69667045Y-32493363D01*
X69962853Y-32605402D01*
X70254971Y-32726700D01*
X70283173Y-32726725D01*
X70309547Y-32736714D01*
X70625736Y-32727023D01*
X70942014Y-32727299D01*
X70968074Y-32716531D01*
X70996268Y-32715667D01*
X71532955Y-32493363D01*
X71537903Y-32481083D01*
X71576989Y-32464933D01*
X72063226Y-31979544D01*
X72080403Y-31938177D01*
X72093363Y-31932955D01*
X72205402Y-31637147D01*
X72298000Y-31414146D01*
X72298000Y-59761080D01*
X72093363Y-59267045D01*
X72081083Y-59262097D01*
X72064933Y-59223011D01*
X71579544Y-58736774D01*
X71538177Y-58719597D01*
X71532955Y-58706637D01*
X71237147Y-58594598D01*
X70945029Y-58473300D01*
X70916827Y-58473275D01*
X70890453Y-58463286D01*
X70574264Y-58472977D01*
X70257986Y-58472701D01*
X70231926Y-58483469D01*
X70203732Y-58484333D01*
X69667045Y-58706637D01*
X69662097Y-58718917D01*
X69623011Y-58735067D01*
X69136774Y-59220456D01*
X69119597Y-59261823D01*
X69106637Y-59267045D01*
X68994598Y-59562853D01*
X68873300Y-59854971D01*
X68873275Y-59883173D01*
X68863286Y-59909547D01*
X68872977Y-60225736D01*
X68872701Y-60542014D01*
X68883469Y-60568074D01*
X68884333Y-60596268D01*
X69106637Y-61132955D01*
X69118917Y-61137903D01*
X69135067Y-61176989D01*
X69620456Y-61663226D01*
X69661823Y-61680403D01*
X69667045Y-61693363D01*
X69962853Y-61805402D01*
X70185854Y-61898000D01*
X41838920Y-61898000D01*
X42332955Y-61693363D01*
X42337903Y-61681083D01*
X42376989Y-61664933D01*
X42863226Y-61179544D01*
X42880403Y-61138177D01*
X42893363Y-61132955D01*
X43005402Y-60837147D01*
X43126700Y-60545029D01*
X43126725Y-60516827D01*
X43136714Y-60490453D01*
X43127023Y-60174264D01*
X43127299Y-59857986D01*
X43116531Y-59831926D01*
X43115667Y-59803732D01*
X42893363Y-59267045D01*
X42881083Y-59262097D01*
X42864933Y-59223011D01*
X42379544Y-58736774D01*
X42338177Y-58719597D01*
X42332955Y-58706637D01*
X42037147Y-58594598D01*
X41745029Y-58473300D01*
X41716827Y-58473275D01*
X41690453Y-58463286D01*
X41374264Y-58472977D01*
X41057986Y-58472701D01*
X41031926Y-58483469D01*
X41003732Y-58484333D01*
X40467045Y-58706637D01*
X40462097Y-58718917D01*
X40423011Y-58735067D01*
X39936774Y-59220456D01*
X39919597Y-59261823D01*
X39906637Y-59267045D01*
X39794598Y-59562853D01*
X39702000Y-59785854D01*
X39702000Y-46491148D01*
X51559785Y-46491148D01*
X51572192Y-46522355D01*
X51572163Y-46555937D01*
X51926465Y-47413413D01*
X52269252Y-48275583D01*
X52304509Y-48328349D01*
X52305482Y-48330704D01*
X52307298Y-48332523D01*
X52347314Y-48392412D01*
X52454977Y-48480460D01*
X53527954Y-49555311D01*
X53607588Y-49652686D01*
X53638429Y-49665980D01*
X53662154Y-49689746D01*
X54518996Y-50045538D01*
X55371043Y-50412803D01*
X55404623Y-50413282D01*
X55435638Y-50426161D01*
X56363441Y-50426971D01*
X57291148Y-50440215D01*
X57322355Y-50427808D01*
X57355937Y-50427837D01*
X58213413Y-50073535D01*
X59075583Y-49730748D01*
X59128349Y-49695491D01*
X59130704Y-49694518D01*
X59132523Y-49692702D01*
X59192412Y-49652686D01*
X59280460Y-49545023D01*
X60355311Y-48472046D01*
X60452686Y-48392412D01*
X60465980Y-48361571D01*
X60489746Y-48337846D01*
X60845538Y-47481004D01*
X61212803Y-46628957D01*
X61213282Y-46595377D01*
X61226161Y-46564362D01*
X61226971Y-45636559D01*
X61240215Y-44708852D01*
X61227808Y-44677645D01*
X61227837Y-44644063D01*
X60873535Y-43786587D01*
X60530748Y-42924417D01*
X60495491Y-42871651D01*
X60494518Y-42869296D01*
X60492702Y-42867477D01*
X60452686Y-42807588D01*
X60345023Y-42719540D01*
X59272046Y-41644689D01*
X59192412Y-41547314D01*
X59161571Y-41534020D01*
X59137846Y-41510254D01*
X58281004Y-41154462D01*
X57428957Y-40787197D01*
X57395377Y-40786718D01*
X57364362Y-40773839D01*
X56436559Y-40773029D01*
X55508852Y-40759785D01*
X55477645Y-40772192D01*
X55444063Y-40772163D01*
X54586587Y-41126465D01*
X53724417Y-41469252D01*
X53671651Y-41504509D01*
X53669296Y-41505482D01*
X53667477Y-41507298D01*
X53607588Y-41547314D01*
X53519540Y-41654977D01*
X52444689Y-42727954D01*
X52347314Y-42807588D01*
X52334020Y-42838429D01*
X52310254Y-42862154D01*
X51954462Y-43718996D01*
X51587197Y-44571043D01*
X51586718Y-44604623D01*
X51573839Y-44635638D01*
X51573029Y-45563441D01*
X51559785Y-46491148D01*
X39702000Y-46491148D01*
X39702000Y-31438920D01*
X39906637Y-31932955D01*
X39918917Y-31937903D01*
X39935067Y-31976989D01*
X40420456Y-32463226D01*
X40461823Y-32480403D01*
X40467045Y-32493363D01*
X40762853Y-32605402D01*
X41054971Y-32726700D01*
X41083173Y-32726725D01*
X41109547Y-32736714D01*
X41425736Y-32727023D01*
X41742014Y-32727299D01*
X41768074Y-32716531D01*
X41796268Y-32715667D01*
X42332955Y-32493363D01*
X42337903Y-32481083D01*
X42376989Y-32464933D01*
X42863226Y-31979544D01*
X42880403Y-31938177D01*
X42893363Y-31932955D01*
X43005402Y-31637147D01*
X43126700Y-31345029D01*
X43126725Y-31316827D01*
X43136714Y-31290453D01*
X43127023Y-30974264D01*
X43127299Y-30657986D01*
X43116531Y-30631926D01*
X43115667Y-30603732D01*
X42893363Y-30067045D01*
X42881083Y-30062097D01*
X42864933Y-30023011D01*
X42379544Y-29536774D01*
X42338177Y-29519597D01*
X42332955Y-29506637D01*
X42037147Y-29394598D01*
X41814146Y-29302000D01*
X70161080Y-29302000D01*
X69667045Y-29506637D01*
X69667045Y-29506637D01*
G37*
X69667045Y-29506637D02*
X69662097Y-29518917D01*
X69623011Y-29535067D01*
X69136774Y-30020456D01*
X69119597Y-30061823D01*
X69106637Y-30067045D01*
X68994598Y-30362853D01*
X68873300Y-30654971D01*
X68873275Y-30683173D01*
X68863286Y-30709547D01*
X68872977Y-31025736D01*
X68872701Y-31342014D01*
X68883469Y-31368074D01*
X68884333Y-31396268D01*
X69106637Y-31932955D01*
X69118917Y-31937903D01*
X69135067Y-31976989D01*
X69620456Y-32463226D01*
X69661823Y-32480403D01*
X69667045Y-32493363D01*
X69962853Y-32605402D01*
X70254971Y-32726700D01*
X70283173Y-32726725D01*
X70309547Y-32736714D01*
X70625736Y-32727023D01*
X70942014Y-32727299D01*
X70968074Y-32716531D01*
X70996268Y-32715667D01*
X71532955Y-32493363D01*
X71537903Y-32481083D01*
X71576989Y-32464933D01*
X72063226Y-31979544D01*
X72080403Y-31938177D01*
X72093363Y-31932955D01*
X72205402Y-31637147D01*
X72298000Y-31414146D01*
X72298000Y-59761080D01*
X72093363Y-59267045D01*
X72081083Y-59262097D01*
X72064933Y-59223011D01*
X71579544Y-58736774D01*
X71538177Y-58719597D01*
X71532955Y-58706637D01*
X71237147Y-58594598D01*
X70945029Y-58473300D01*
X70916827Y-58473275D01*
X70890453Y-58463286D01*
X70574264Y-58472977D01*
X70257986Y-58472701D01*
X70231926Y-58483469D01*
X70203732Y-58484333D01*
X69667045Y-58706637D01*
X69662097Y-58718917D01*
X69623011Y-58735067D01*
X69136774Y-59220456D01*
X69119597Y-59261823D01*
X69106637Y-59267045D01*
X68994598Y-59562853D01*
X68873300Y-59854971D01*
X68873275Y-59883173D01*
X68863286Y-59909547D01*
X68872977Y-60225736D01*
X68872701Y-60542014D01*
X68883469Y-60568074D01*
X68884333Y-60596268D01*
X69106637Y-61132955D01*
X69118917Y-61137903D01*
X69135067Y-61176989D01*
X69620456Y-61663226D01*
X69661823Y-61680403D01*
X69667045Y-61693363D01*
X69962853Y-61805402D01*
X70185854Y-61898000D01*
X41838920Y-61898000D01*
X42332955Y-61693363D01*
X42337903Y-61681083D01*
X42376989Y-61664933D01*
X42863226Y-61179544D01*
X42880403Y-61138177D01*
X42893363Y-61132955D01*
X43005402Y-60837147D01*
X43126700Y-60545029D01*
X43126725Y-60516827D01*
X43136714Y-60490453D01*
X43127023Y-60174264D01*
X43127299Y-59857986D01*
X43116531Y-59831926D01*
X43115667Y-59803732D01*
X42893363Y-59267045D01*
X42881083Y-59262097D01*
X42864933Y-59223011D01*
X42379544Y-58736774D01*
X42338177Y-58719597D01*
X42332955Y-58706637D01*
X42037147Y-58594598D01*
X41745029Y-58473300D01*
X41716827Y-58473275D01*
X41690453Y-58463286D01*
X41374264Y-58472977D01*
X41057986Y-58472701D01*
X41031926Y-58483469D01*
X41003732Y-58484333D01*
X40467045Y-58706637D01*
X40462097Y-58718917D01*
X40423011Y-58735067D01*
X39936774Y-59220456D01*
X39919597Y-59261823D01*
X39906637Y-59267045D01*
X39794598Y-59562853D01*
X39702000Y-59785854D01*
X39702000Y-46491148D01*
X51559785Y-46491148D01*
X51572192Y-46522355D01*
X51572163Y-46555937D01*
X51926465Y-47413413D01*
X52269252Y-48275583D01*
X52304509Y-48328349D01*
X52305482Y-48330704D01*
X52307298Y-48332523D01*
X52347314Y-48392412D01*
X52454977Y-48480460D01*
X53527954Y-49555311D01*
X53607588Y-49652686D01*
X53638429Y-49665980D01*
X53662154Y-49689746D01*
X54518996Y-50045538D01*
X55371043Y-50412803D01*
X55404623Y-50413282D01*
X55435638Y-50426161D01*
X56363441Y-50426971D01*
X57291148Y-50440215D01*
X57322355Y-50427808D01*
X57355937Y-50427837D01*
X58213413Y-50073535D01*
X59075583Y-49730748D01*
X59128349Y-49695491D01*
X59130704Y-49694518D01*
X59132523Y-49692702D01*
X59192412Y-49652686D01*
X59280460Y-49545023D01*
X60355311Y-48472046D01*
X60452686Y-48392412D01*
X60465980Y-48361571D01*
X60489746Y-48337846D01*
X60845538Y-47481004D01*
X61212803Y-46628957D01*
X61213282Y-46595377D01*
X61226161Y-46564362D01*
X61226971Y-45636559D01*
X61240215Y-44708852D01*
X61227808Y-44677645D01*
X61227837Y-44644063D01*
X60873535Y-43786587D01*
X60530748Y-42924417D01*
X60495491Y-42871651D01*
X60494518Y-42869296D01*
X60492702Y-42867477D01*
X60452686Y-42807588D01*
X60345023Y-42719540D01*
X59272046Y-41644689D01*
X59192412Y-41547314D01*
X59161571Y-41534020D01*
X59137846Y-41510254D01*
X58281004Y-41154462D01*
X57428957Y-40787197D01*
X57395377Y-40786718D01*
X57364362Y-40773839D01*
X56436559Y-40773029D01*
X55508852Y-40759785D01*
X55477645Y-40772192D01*
X55444063Y-40772163D01*
X54586587Y-41126465D01*
X53724417Y-41469252D01*
X53671651Y-41504509D01*
X53669296Y-41505482D01*
X53667477Y-41507298D01*
X53607588Y-41547314D01*
X53519540Y-41654977D01*
X52444689Y-42727954D01*
X52347314Y-42807588D01*
X52334020Y-42838429D01*
X52310254Y-42862154D01*
X51954462Y-43718996D01*
X51587197Y-44571043D01*
X51586718Y-44604623D01*
X51573839Y-44635638D01*
X51573029Y-45563441D01*
X51559785Y-46491148D01*
X39702000Y-46491148D01*
X39702000Y-31438920D01*
X39906637Y-31932955D01*
X39918917Y-31937903D01*
X39935067Y-31976989D01*
X40420456Y-32463226D01*
X40461823Y-32480403D01*
X40467045Y-32493363D01*
X40762853Y-32605402D01*
X41054971Y-32726700D01*
X41083173Y-32726725D01*
X41109547Y-32736714D01*
X41425736Y-32727023D01*
X41742014Y-32727299D01*
X41768074Y-32716531D01*
X41796268Y-32715667D01*
X42332955Y-32493363D01*
X42337903Y-32481083D01*
X42376989Y-32464933D01*
X42863226Y-31979544D01*
X42880403Y-31938177D01*
X42893363Y-31932955D01*
X43005402Y-31637147D01*
X43126700Y-31345029D01*
X43126725Y-31316827D01*
X43136714Y-31290453D01*
X43127023Y-30974264D01*
X43127299Y-30657986D01*
X43116531Y-30631926D01*
X43115667Y-30603732D01*
X42893363Y-30067045D01*
X42881083Y-30062097D01*
X42864933Y-30023011D01*
X42379544Y-29536774D01*
X42338177Y-29519597D01*
X42332955Y-29506637D01*
X42037147Y-29394598D01*
X41814146Y-29302000D01*
X70161080Y-29302000D01*
X69667045Y-29506637D01*
G36*
X72298000Y-61898000D02*
X71038920Y-61898000D01*
X71532955Y-61693363D01*
X71537903Y-61681083D01*
X71576989Y-61664933D01*
X72063226Y-61179544D01*
X72080403Y-61138177D01*
X72093363Y-61132955D01*
X72205402Y-60837147D01*
X72298000Y-60614146D01*
X72298000Y-61898000D01*
X72298000Y-61898000D01*
G37*
X72298000Y-61898000D02*
X71038920Y-61898000D01*
X71532955Y-61693363D01*
X71537903Y-61681083D01*
X71576989Y-61664933D01*
X72063226Y-61179544D01*
X72080403Y-61138177D01*
X72093363Y-61132955D01*
X72205402Y-60837147D01*
X72298000Y-60614146D01*
X72298000Y-61898000D01*
G36*
X40467045Y-29506637D02*
X40462097Y-29518917D01*
X40423011Y-29535067D01*
X39936774Y-30020456D01*
X39919597Y-30061823D01*
X39906637Y-30067045D01*
X39794598Y-30362853D01*
X39702000Y-30585854D01*
X39702000Y-29302000D01*
X40961080Y-29302000D01*
X40467045Y-29506637D01*
X40467045Y-29506637D01*
G37*
X40467045Y-29506637D02*
X40462097Y-29518917D01*
X40423011Y-29535067D01*
X39936774Y-30020456D01*
X39919597Y-30061823D01*
X39906637Y-30067045D01*
X39794598Y-30362853D01*
X39702000Y-30585854D01*
X39702000Y-29302000D01*
X40961080Y-29302000D01*
X40467045Y-29506637D01*
G36*
X72298000Y-30561080D02*
X72093363Y-30067045D01*
X72081083Y-30062097D01*
X72064933Y-30023011D01*
X71579544Y-29536774D01*
X71538177Y-29519597D01*
X71532955Y-29506637D01*
X71237147Y-29394598D01*
X71014146Y-29302000D01*
X72298000Y-29302000D01*
X72298000Y-30561080D01*
X72298000Y-30561080D01*
G37*
X72298000Y-30561080D02*
X72093363Y-30067045D01*
X72081083Y-30062097D01*
X72064933Y-30023011D01*
X71579544Y-29536774D01*
X71538177Y-29519597D01*
X71532955Y-29506637D01*
X71237147Y-29394598D01*
X71014146Y-29302000D01*
X72298000Y-29302000D01*
X72298000Y-30561080D01*
M02*
